<?xml version="1.0" encoding="iso-8859-1"?><!DOCTYPE svg PUBLIC "-//W3C//DTD SVG 1.1//EN" "http://www.w3.org/Graphics/SVG/1.1/DTD/svg11.dtd"><svg xmlns="http://www.w3.org/2000/svg" xmlns:xlink="http://www.w3.org/1999/xlink"><symbol viewBox="0 0 444.819 444.819" id="chevron-arrow-up" xmlns="http://www.w3.org/2000/svg"><path d="M433.968 278.657L248.387 92.79c-7.419-7.044-16.08-10.566-25.977-10.566-10.088 0-18.652 3.521-25.697 10.566L10.848 278.657C3.615 285.887 0 294.549 0 304.637c0 10.28 3.619 18.843 10.848 25.693l21.411 21.413c6.854 7.23 15.42 10.852 25.697 10.852 10.278 0 18.842-3.621 25.697-10.852L222.41 213.271 361.168 351.74c6.848 7.228 15.413 10.852 25.7 10.852 10.082 0 18.747-3.624 25.975-10.852l21.409-21.412c7.043-7.043 10.567-15.608 10.567-25.693 0-10.09-3.614-18.751-10.851-25.978z"/></symbol><symbol viewBox="0 0 438.533 438.533" id="chevron-sign-down" xmlns="http://www.w3.org/2000/svg"><path d="M409.133 109.203c-19.608-33.592-46.205-60.189-79.798-79.796C295.736 9.801 259.058 0 219.273 0c-39.781 0-76.47 9.801-110.063 29.407-33.595 19.604-60.192 46.201-79.8 79.796C9.801 142.8 0 179.489 0 219.267c0 39.78 9.804 76.463 29.407 110.062 19.607 33.592 46.204 60.189 79.799 79.798 33.597 19.605 70.283 29.407 110.063 29.407s76.47-9.802 110.065-29.407c33.593-19.602 60.189-46.206 79.795-79.798 19.603-33.596 29.403-70.284 29.403-110.062.001-39.782-9.8-76.472-29.399-110.064zm-47.4 95.502L232.119 334.324c-3.614 3.614-7.9 5.428-12.849 5.428-4.948 0-9.229-1.813-12.847-5.428L76.804 204.705c-3.617-3.615-5.426-7.898-5.426-12.845 0-4.949 1.809-9.235 5.426-12.851l29.119-29.121c3.621-3.618 7.9-5.426 12.851-5.426 4.948 0 9.231 1.809 12.847 5.426l87.65 87.65 87.65-87.65c3.614-3.618 7.898-5.426 12.847-5.426s9.233 1.809 12.847 5.426l29.123 29.121c3.621 3.616 5.428 7.902 5.428 12.851-.002 4.947-1.809 9.23-5.433 12.845z"/></symbol><symbol viewBox="0 0 96.954 96.954" id="dribbble-logo" xmlns="http://www.w3.org/2000/svg"><path d="M48.477.065C21.747.066.001 21.782 0 48.477c.001 26.695 21.747 48.412 48.477 48.412s48.476-21.717 48.477-48.412C96.953 21.782 75.207.066 48.477.065zm31.895 22.852c5.528 6.851 8.892 15.508 9.048 24.934-1.84-.372-9.634-1.83-18.947-1.83-3.004 0-6.166.153-9.336.542a124.296 124.296 0 0 0-3.443-7.693c14.329-5.905 21.247-14.1 22.678-15.953zM48.477 7.641c10.328 0 19.77 3.839 26.982 10.161-1.143 1.559-7.333 9.294-21.152 14.52-6.395-11.697-13.4-21.376-15.066-23.625a40.819 40.819 0 0 1 9.236-1.056zm-17.592 3.974c1.412 1.942 8.422 11.725 14.982 23.329-17.606 4.626-33.242 4.93-37.014 4.93h-.4c2.709-12.495 11.153-22.878 22.432-28.259zM7.522 48.54c0-.336.008-.673.018-1.01.245.004.604.008 1.074.008 5.08 0 22.722-.423 40.901-5.819 1.103 2.16 2.155 4.35 3.129 6.538-.455.132-.91.266-1.36.411C30.817 55.28 19.563 72.78 17.833 75.639 11.421 68.415 7.522 58.926 7.522 48.54zm40.955 40.9c-9.397 0-18.06-3.182-24.979-8.515 1.169-2.294 9.659-17.584 32.092-25.392a.65.65 0 0 0 .047-.017c5.621 14.646 8.004 26.937 8.661 30.744a40.738 40.738 0 0 1-15.821 3.18zm23.194-7.211c-.549-3.15-2.755-14.67-7.85-28.719a54.046 54.046 0 0 1 8.245-.617c8.559-.001 15.255 1.873 16.811 2.346-1.85 11.161-8.238 20.812-17.206 26.99z"/></symbol><symbol viewBox="0 0 483.4 367.8" id="envelope" xmlns="http://www.w3.org/2000/svg"><path d="M424.3 57.75H59.1c-32.6 0-59.1 26.5-59.1 59.1v249.6c0 32.6 26.5 59.1 59.1 59.1h365.1c32.6 0 59.1-26.5 59.1-59.1v-249.5c.1-32.6-26.4-59.2-59-59.2zm32.1 308.7c0 17.7-14.4 32.1-32.1 32.1H59.1c-17.7 0-32.1-14.4-32.1-32.1v-249.5c0-17.7 14.4-32.1 32.1-32.1h365.1c17.7 0 32.1 14.4 32.1 32.1v249.5h.1z"/><path d="M304.8 238.55l118.2-106c5.5-5 6-13.5 1-19.1-5-5.5-13.5-6-19.1-1l-163 146.3-31.8-28.4c-.1-.1-.2-.2-.2-.3-.7-.7-1.4-1.3-2.2-1.9L78.3 112.35c-5.6-5-14.1-4.5-19.1 1.1-5 5.6-4.5 14.1 1.1 19.1l119.6 106.9-119.1 111.5c-5.4 5.1-5.7 13.6-.6 19.1 2.7 2.8 6.3 4.3 9.9 4.3 3.3 0 6.6-1.2 9.2-3.6l120.9-113.1 32.8 29.3c2.6 2.3 5.8 3.4 9 3.4s6.5-1.2 9-3.5l33.7-30.2 120.2 114.2c2.6 2.5 6 3.7 9.3 3.7 3.6 0 7.1-1.4 9.8-4.2 5.1-5.4 4.9-14-.5-19.1l-118.7-112.7z"/></symbol><symbol viewBox="0 0 96.227 96.227" id="facebook-logo" xmlns="http://www.w3.org/2000/svg"><path d="M73.099 15.973l-9.058.004c-7.102 0-8.477 3.375-8.477 8.328v10.921h16.938l-.006 17.106H55.564v43.895H37.897V52.332h-14.77V35.226h14.77V22.612C37.897 7.972 46.84 0 59.9 0l13.2.021-.001 15.952z"/></symbol><symbol viewBox="0 0 612 545.89" id="fax-machine" xmlns="http://www.w3.org/2000/svg"><path d="M587.02 125.52h-74.939V58.075c0-13.796-11.183-24.98-24.98-24.98H124.897c-13.796 0-24.98 11.183-24.98 24.98v67.445H24.978C11.183 125.52 0 136.704 0 150.5v244.8c0 13.796 11.183 24.98 24.98 24.98h74.939V551.926c0 8.328 1.684 14.541 8.121 20.428 2.998 2.742 6.199 4.52 10.109 5.618 3.621 1.015 7.2.929 10.86.929h353.98c3.662 0 7.244.086 10.867-.93 3.913-1.099 7.117-2.881 10.114-5.627 6.438-5.895 8.11-12.118 8.11-20.447v-43.181-88.435h74.939c13.796 0 24.98-11.183 24.98-24.98v-244.8c.001-13.796-11.182-24.981-24.979-24.981zM62.449 213.573c-12.071 0-21.857-9.786-21.857-21.857s9.786-21.857 21.857-21.857 21.857 9.786 21.857 21.857-9.786 21.857-21.857 21.857zM487.102 553.92H124.898V356.582h362.204V553.92zm0-428.4H124.898V83.055c0-13.796 11.183-24.98 24.98-24.98h312.245c13.796 0 24.98 11.183 24.98 24.98l-.001 42.465z"/></symbol><symbol viewBox="0 0 96.669 96.669" id="google-plus-social-logotype" xmlns="http://www.w3.org/2000/svg"><path d="M50.91 55.189l-4.533-3.522c-1.38-1.144-3.27-2.656-3.27-5.422 0-2.778 1.889-4.544 3.527-6.18 5.279-4.157 10.557-8.581 10.557-17.903 0-9.586-6.031-14.629-8.923-17.022h7.795L64.244 0H39.459C32.658 0 22.856 1.608 15.68 7.533c-5.408 4.666-8.046 11.099-8.046 16.892 0 9.831 7.548 19.798 20.88 19.798 1.259 0 2.636-.124 4.022-.252-.623 1.515-1.252 2.777-1.252 4.917 0 3.905 2.006 6.299 3.774 8.567-5.663.39-16.237 1.018-24.033 5.809-7.424 4.415-9.684 10.84-9.684 15.377 0 9.334 8.8 18.028 27.045 18.028 21.636 0 33.089-11.971 33.089-23.823.002-8.707-5.028-12.992-10.565-17.657zM34.431 40.691c-10.824 0-15.727-13.992-15.727-22.434 0-3.288.623-6.682 2.763-9.333C23.486 6.4 27 4.762 30.281 4.762c10.434 0 15.846 14.118 15.846 23.197 0 2.271-.251 6.296-3.144 9.207-2.023 2.021-5.409 3.525-8.552 3.525zm.124 50.696c-13.46 0-22.139-6.438-22.139-15.392 0-8.949 8.048-11.978 10.816-12.979 5.281-1.777 12.076-2.024 13.21-2.024 1.258 0 1.887 0 2.889.126 9.568 6.81 13.721 10.203 13.721 16.65.001 7.805-6.417 13.619-18.497 13.619zM82.679 40.499V27.894h-6.224v12.605H63.869v6.294h12.586v12.684h6.224V46.793h12.649v-6.294z"/></symbol><symbol viewBox="0 0 438.536 438.536" id="map-marker" xmlns="http://www.w3.org/2000/svg"><path d="M322.621 42.825C294.073 14.272 259.619 0 219.268 0c-40.353 0-74.803 14.275-103.353 42.825-28.549 28.549-42.825 63-42.825 103.353 0 20.749 3.14 37.782 9.419 51.106l104.21 220.986c2.856 6.276 7.283 11.225 13.278 14.838 5.996 3.617 12.419 5.428 19.273 5.428 6.852 0 13.278-1.811 19.273-5.428 5.996-3.613 10.513-8.562 13.559-14.838L356.02 197.284c6.282-13.324 9.424-30.358 9.424-51.106.005-40.353-14.268-74.8-42.823-103.353zm-51.679 155.03c-14.273 14.272-31.497 21.411-51.674 21.411s-37.401-7.139-51.678-21.411c-14.275-14.277-21.414-31.501-21.414-51.678 0-20.175 7.139-37.402 21.414-51.675 14.277-14.275 31.504-21.414 51.678-21.414 20.177 0 37.401 7.139 51.674 21.414 14.274 14.272 21.413 31.5 21.413 51.675 0 20.175-7.138 37.398-21.413 51.678z"/></symbol><symbol viewBox="0 0 252.35 252.35" id="musica-searcher" xmlns="http://www.w3.org/2000/svg"><path d="M244.186 214.604l-54.379-54.378c-.289-.289-.628-.491-.93-.76 10.7-16.231 16.945-35.66 16.945-56.554C205.822 46.075 159.747 0 102.911 0S0 46.075 0 102.911c0 56.835 46.074 102.911 102.91 102.911 20.895 0 40.323-6.245 56.554-16.945.269.301.47.64.759.929l54.38 54.38c8.169 8.168 21.413 8.168 29.583 0 8.168-8.169 8.168-21.413 0-29.582zm-141.275-44.458c-37.134 0-67.236-30.102-67.236-67.235 0-37.134 30.103-67.236 67.236-67.236 37.132 0 67.235 30.103 67.235 67.236s-30.103 67.235-67.235 67.235z"/></symbol><symbol viewBox="0 0 438.536 438.536" id="telephone-symbol-button" xmlns="http://www.w3.org/2000/svg"><path d="M414.41 24.123C398.333 8.042 378.963 0 356.315 0H82.228C59.58 0 40.21 8.042 24.126 24.123 8.045 40.207.003 59.576.003 82.225v274.084c0 22.647 8.042 42.018 24.123 58.102 16.084 16.084 35.454 24.126 58.102 24.126h274.084c22.648 0 42.018-8.042 58.095-24.126 16.084-16.084 24.126-35.454 24.126-58.102V82.225c-.001-22.649-8.043-42.021-24.123-58.102zm-55.251 308.751c-3.997 8.754-12.99 16.371-26.977 22.846-13.99 6.475-26.413 9.712-37.265 9.712-3.046 0-6.283-.235-9.708-.711-3.426-.479-6.324-.952-8.703-1.428-2.378-.476-5.523-1.331-9.421-2.57-3.905-1.234-6.715-2.189-8.422-2.854-1.718-.664-4.856-1.854-9.421-3.566-4.569-1.718-7.427-2.765-8.562-3.138-31.215-11.427-61.721-32.028-91.507-61.814-29.786-29.793-50.391-60.292-61.812-91.502-.378-1.143-1.425-3.999-3.14-8.565a952.564 952.564 0 0 0-3.571-9.419c-.662-1.713-1.615-4.521-2.853-8.42-1.237-3.903-2.091-7.041-2.568-9.423-.478-2.376-.95-5.277-1.427-8.704-.476-3.427-.713-6.667-.713-9.71 0-10.85 3.237-23.269 9.71-37.259 6.472-13.988 14.084-22.981 22.841-26.979 10.088-4.189 19.7-6.283 28.837-6.283 2.091 0 3.616.192 4.565.572.953.385 2.524 2.094 4.714 5.14 2.19 3.046 4.568 6.899 7.137 11.563 2.57 4.665 5.092 9.186 7.566 13.562a601.267 601.267 0 0 1 7.139 12.991c2.284 4.279 3.711 6.995 4.281 8.133.571.957 1.809 2.762 3.711 5.429 1.902 2.663 3.333 5.039 4.283 7.135.95 2.094 1.427 4.093 1.427 5.996 0 2.859-1.953 6.331-5.854 10.42-3.903 4.093-8.186 7.854-12.85 11.281s-8.945 7.092-12.847 10.994c-3.899 3.899-5.852 7.087-5.852 9.562 0 1.333.333 2.902 1 4.71.666 1.812 1.285 3.287 1.856 4.427.571 1.141 1.477 2.76 2.712 4.856 1.237 2.096 2.048 3.427 2.426 3.999 10.467 18.843 22.508 35.07 36.114 48.681 13.612 13.613 29.836 25.648 48.682 36.117.567.384 1.902 1.191 4.004 2.43 2.091 1.232 3.713 2.136 4.853 2.707 1.143.571 2.614 1.191 4.425 1.852 1.811.664 3.381.999 4.719.999 3.036 0 7.225-3.138 12.56-9.418a976.681 976.681 0 0 1 16.276-18.705c5.516-6.181 9.985-9.274 13.418-9.274 1.902 0 3.897.473 5.999 1.424 2.095.951 4.469 2.382 7.132 4.284 2.669 1.91 4.476 3.142 5.428 3.721l15.125 8.271c10.089 5.332 18.511 10.041 25.27 14.134s10.424 6.899 10.996 8.419c.379.951.564 2.478.564 4.572-.007 9.128-2.102 18.741-6.297 28.803z"/></symbol><symbol viewBox="0 0 97.637 97.637" id="twitter-social-logotype" xmlns="http://www.w3.org/2000/svg"><path d="M97.523 18.526a.482.482 0 0 0-.568-.131 39.055 39.055 0 0 1-9.153 2.776 20.299 20.299 0 0 0 7.143-10.035.484.484 0 0 0-.709-.565 39.147 39.147 0 0 1-12.18 4.701 20.408 20.408 0 0 0-14.644-6.219c-11.204 0-20.318 9.114-20.318 20.317 0 1.355.131 2.697.391 4-15.518-.958-30.028-8.408-39.894-20.509a.484.484 0 0 0-.795.062 20.303 20.303 0 0 0-2.751 10.215 20.3 20.3 0 0 0 7.649 15.896 19.42 19.42 0 0 1-7.089-2.292.483.483 0 0 0-.721.413l-.002.26c0 8.946 5.895 16.801 14.282 19.409a19.514 19.514 0 0 1-6.754-.098.486.486 0 0 0-.553.623A20.314 20.314 0 0 0 28.494 71.39c-6.785 4.971-14.805 7.59-23.279 7.59-1.561 0-3.133-.093-4.673-.274a.492.492 0 0 0-.514.317.485.485 0 0 0 .195.572 56.693 56.693 0 0 0 30.664 8.988c35.625 0 56.913-28.938 56.913-56.914 0-.779-.015-1.554-.046-2.327a40.519 40.519 0 0 0 9.802-10.235.486.486 0 0 0-.033-.581z"/></symbol></svg>