<svg width="525" height="397" xmlns="http://www.w3.org/2000/svg" xmlns:xlink="http://www.w3.org/1999/xlink"><svg version="1.1" id="b-logo" y="350" xml:space="preserve" width="49" height="47" xmlns="http://www.w3.org/2000/svg"><style>.ast0{fill:#159b82}.ast1{fill:#0a493d}.ast3{fill:#169d83}.ast6{fill:#0a483c}</style><path class="ast0" d="M-.2 34.2V13.7c.6-.9.7-2 1.3-2.8 1.7-2.7 4.1-4.6 7.3-5.7.5-.2 1-.3 1.5-.1l.3.3c.1.3.1.5 0 .8-1.8 2.5-2.9 5.3-3.5 8.3-1 3.6-.7 7.3-.9 11-.2 3.6.6 7 1.5 10.4.5 1.9 1.6 3.5 2.7 5.1 0 1.1-.3 1.3-1.3 1-1.8-.4-3.5-1.3-4.8-2.5-1.7-1.4-3-3.3-4.1-5.3z"/><path class="ast1" d="M34 46.7H16.5c-.6-.4-1.9-.3-1.5-1.6.9-.5 1.8-.3 2.8-.1 2.2.4 4.6.6 6.7-.2 1.9-.7 3.9-.9 5.8-1.8.7-.3 1.4-.6 1.8-1.3.4-.5 1-.7 1.5-1 2.3-1.3 3.8-3.4 5.2-5.5.7-1.1 1.5-2.2 1.4-3.7-.1-.6.5-1.3.9-1.8.1-.2.4-.4.4-.6-.5-1.6.1-3.1.6-4.6.2-.5.1-1.2-.3-1.7-.2-.2-.2-.5-.2-.8.2-3.2-.7-6-2.5-8.7-.3-.4-.6-.9-.3-1.4.8-.5 1.2.1 1.7.4 1.7 1.2 3.2 2.6 5 3.8.4.3.8.6 1 1.1.5 1.3 1.6 2.4 1.1 4-.2.9.3 1.8.3 2.7 0 1.8-.7 3.5-.8 5.3 0 .4-.3.8-.5 1.1-.5.6-.5 1.3-.7 1.9-.8 1.8-1.2 3.9-2.8 5.3-.6.5-1.2 1.1-1.5 1.9-.1.2-.2.5-.4.6-1.5.6-2 2.2-3.4 3-.1.1-.2.1-.3.2-.6 1.7-2.3 2.4-3.5 3.5z"/><path d="M34 46.7c0-.6.2-1.1.8-1.3 1.1-.4 1.7-1.2 2-2.3 0-.2.1-.4.2-.4 1.9-.2 1.8-2.7 3.7-2.8.3-1 .8-1.9 1.6-2.4 1.1-.8 1.8-1.6 1.6-2.9 0-.5.9-.6 1-1 .4-1.5 1.2-3 1.5-4.5.4-1.5 1-3.1.8-4.8-.1-.6-.1-1.2-.2-1.8-.1-.8-.7-1.6.1-2.3.1-.1.1-.3 0-.3-1-.6-.7-1.8-1.3-2.5 1.5-.1 2.1 1 2.8 2V46c0 .7-.2.9-.9.9-4.4-.2-9.1-.2-13.7-.2z" fill="#0a4b3f"/><path class="ast0" d="M45.2 16.4c-1.8-1.1-3.4-2.6-5.1-3.8-.4-.3-.7-.7-1.2-.8-.4.2-.7-.1-1-.2-.6-.6-1.1-1.2-2-1.5-.4-.3-.7-.7-.8-1.2.1-.6-.4-1-.8-1.2-3.9-2.6-8-4.7-13-4.8-3.8-.1-7.5.4-10.6 2.7-.3.1-.5 0-.8-.2-.4-.5-.2-1 0-1.5.8-1.6 1.6-3.2 3.3-4.1h17.5c1 .9 2.5 1.2 3.4 2.3.4.4.8.8 1.1 1.3 1.1 1.7 2.7 3 4.3 4.1.5.4 1 .8 1.3 1.3 1.5 2.1 2.8 4.3 4.2 6.5.3.3.5.7.2 1.1z"/><path class="ast3" d="M9.9 5.3h.8c.6-.3 1.3-.5 2.1-.5H25c.7 0 1.5-.1 1.8.7-.6.6-1.3.5-2 .5H12.6c-1.9 0-2 .1-2 1.9v31.3c0 1.8.1 1.9 2 1.9H25c.6 0 1.3-.1 1.8.4 0 .8-.7.8-1.2.8-4.8 0-9.6.2-14.4-.1-.6.1-.5.4-.3.8.3.8.8 1.4 1.3 2.2.3.5.7.9.4 1.5H.4c-.6 0-.8-.1-.8-.7V34.2c.8.1 1.1.8 1.4 1.3.8 1.5 1.9 2.5 3 3.6 1.4 1.4 3.1 2.1 5 2.7.6.2.9 0 .9-.6-.4-.7-.5-1.4-.5-2.2V8.1c0-.7.1-1.4.5-2.1v-.7zm3.3-5.6c-.5 1.1-1.6 1.7-2.1 2.8-.5.9-1 1.8-1.2 2.8-2 .2-3.8 1.1-5.3 2.4-1 .9-2.2 1.7-2.9 2.9-.2.4-.6.8-.6 1.2-.1.9-.6 1.4-1.3 1.9V.5c0-.7.1-.8.8-.8 4.2.1 8.4 0 12.6 0z"/><path d="M45.2 16.4c-1.5-2.8-3.2-5.6-5.2-8.1-.5-.7-1.5-1-2.2-1.5-2-1.5-3-3.7-4.9-5.2-.3-.3-.7-.4-1.1-.5-.7-.2-1.1-.5-1.1-1.3h5.8c2.4 1.8 4.5 4 6.5 6.1 1.7 1.8 3.7 3.5 4.3 6 .2.9 1.2 1.5 1.5 2.5v4.8c-.9-.7-1.9-1.3-2.8-2-.3-.2-.5-.5-.8-.8z" fill="#169c83"/><path class="ast3" d="M48.8 14.4c-1.4-1.1-2.1-2.5-2.6-4.1-.1-.5-.4-.9-.8-1.2-1-.7-1.5-1.8-2.3-2.6-1-.9-1.8-2-2.9-2.9-.5-.4-1-.8-1.4-1.3-.5-.6-.7-1.4-1.7-1.6-.5-.1-.3-.7-.4-1h11.4c.6 0 .8.1.8.7-.2 4.7-.1 9.4-.1 14z"/><path class="ast0" d="M12.7 46.7c-.7-1.1-1.4-2.2-2-3.4-.2-.4-.7-.9 0-1.4 1.3.4 2.1 1.4 3.2 2.1.3.4.9.7 1.1 1.2.5.5 1 1 1.6 1.4-1.4.1-2.6.1-3.9.1z"/><path d="M9.9 6v35.2c-1.8-1.7-2.6-3.8-3.3-6.1-.5-1.4-.2-3-1.1-4.3-.2-.3-.1-.7-.1-1.1 0-3.1.1-6.3.1-9.4 0-3.6.6-7 1.9-10.3.6-1.4 1-3 2.5-4z" fill="#159981"/><path class="ast6" d="M14.9 45.3c-.6-.2-.9-.6-1.3-1 1-.8 2.1-.5 3.1-.2 2.5.6 5 .7 7.5 0 2-.6 4.2-.8 6-1.8 2.5-1.5 5.2-2.8 6.8-5.4.5-.9 1.1-1.8 1.6-2.7.4-.7.7-1.4.6-2.3v-.5c1.1-1.6 1.1-3.5 1.5-5.4.1-.3.3-.6.2-.9-.7-3.2-.1-6.6-1.5-9.8-.4-.9-1.1-1.6-1.4-2.6-.1-.5-.5-1-.1-1.5.3.2.5.3.8.5-.1.5.1.9.4 1.3 1.7 2.1 2.3 4.7 2.6 7.2.1 1.2.6 2.4.5 3.7-.1.8-.1 1.6-.7 2.2-.3.3-.3.7-.2 1.1.3 1 .3 2-.5 2.9-.5.6-.7 1.4-.7 2.3 0 1.3-.9 2.3-1.6 3.3-1.3 1.9-2.9 3.6-4.8 5.1-3.5 2.9-7.7 3.7-11.9 4.6-1.6.3-3.3 0-5-.5-.5.1-1.2.5-1.9.4z"/><path d="M26.8 41.7c-5.1 0-10.2 0-15.3.1-1 0-1.4-.2-1.3-1.2V6.8c0-1.1.4-1.3 1.4-1.3 5 .1 10.1.1 15.1.1 2.3-.8 7.7 1.3 8.6 3.4.3.3.5.6.8.9 2 1.7 2 3.9 1.9 6.1-.4 2.7-1.9 4.7-4.3 6.2-.5.3-1.1.7-1.6.7 3.1.9 5.7 2.5 6.6 6 .1.4.3.9.3 1.3v2c-.5 4-2.7 6.8-6.4 8.5-1.3.6-2.7 1.1-4.2 1.3-.6.1-1.1.2-1.6-.3z" fill="#fefefe"/><path class="ast6" d="M26.8 41.7c3.1-.3 5.9-1.1 8.3-3.1 1.7-1.4 2.7-3.2 3.2-5.3.1-.3.2-.7.3-1 .2-.7.2-1.4 0-2.2-.1-.4-.4-.8-.3-1.2.3-2.7.3-5.5-.2-8.2-.2-.9-.3-1.7-.3-2.6 0-.7-.1-1.4-.5-2 .3-2.2-.2-4.3-1.4-6.2 1 .1 1.5.8 2 1.5.4 1.1.9 2.1 1.5 3.2.8 1.3.8 3 1.4 4.4.7 1.5-.3 3 .1 4.4.4 1.2.7 2.5-.2 3.7-.1.1-.1.4 0 .6.5 1.2-.1 2.2-.8 3.1-.4.5-.5 1-.4 1.7.2 1.5-.9 2.6-1.6 3.8-1.1 1.8-2.5 3.3-4.4 4.6-2.4 1.6-4.9 2.9-7.8 3.5-2.1.4-4.2.9-6.4.9-1.5 0-2.7-.9-4.1-.6-.6.1-1.2 0-1.8-.1-1.1-.7-2.1-1.4-3-2.4 4.9 0 9.8 0 14.7-.1.8-.2 1.3-.1 1.7-.4z"/><path d="M35.3 8.9c-2.4-2.1-5.4-3-8.6-3.4-.4-.4-1-.2-1.5-.2H10.7c1.4-1.8 3.5-2.2 5.5-2.6 2.6-.6 5.4-.5 8 0 4 .8 7.5 2.5 10.6 5 .4.2 1.1.6.5 1.2z" fill="#159a81"/><path d="M17.3 31.1v-4.4c0-.4 0-.8.5-.8 3.1.1 6.3-.3 9.3.3 3.1.6 4.5 2.5 4.3 5.4-.3 2.8-2.3 4.7-5.5 4.8-2.6.1-5.2 0-7.8.1-.7 0-.8-.3-.8-.9v-4.5zm0-15.3v-4.2c0-.5 0-.9.7-.9 2.6 0 5.2-.1 7.8.2 3.2.4 4.5 2.1 4.5 5.1-.1 2.9-1.8 4.6-4.9 4.9-2.4.3-4.8.1-7.2.2-.7 0-.9-.2-.9-.8.1-1.5 0-3 0-4.5z" fill="#094136"/><path d="M37.5 16.1c1 .2 1.1 1.1 1 1.7-.2 1.9.5 3.7.6 5.5.1 1.5-.2 3-.1 4.5 0 .3 0 .9-.6 1.1-1-3.4-3.8-5-7.4-5.9 3.5-1.4 5.9-3.4 6.5-6.9z" fill="#0a473b"/><path class="ast1" d="M38.6 30.1c.3.7.3 1.4 0 2.2v-2.2z"/></svg><svg version="1.1" id="por-1" xml:space="preserve" width="175" height="175" xmlns="http://www.w3.org/2000/svg"><style>.bst0{fill:#00aa9d}.bst1{fill:#fefefe}.bst6{fill:#5fdbd6}.bst8{fill:#007979}.bst9{fill:#c1e9e4}.bst10{fill:#e8f5f2}.bst19{fill:#bbe8e3}.bst20{fill:#d7eee9}.bst23{fill:#e2f4f0}.bst24{fill:#fefbf9}</style><path class="bst0" d="M93.9.6h2.3c5.6.8 11.4.6 16.9 2.3 12.6 4 23.9 9.9 33.8 18.8 7.7 6.9 14.1 14.7 19 23.7 5.6 10.2 9.5 21 9.4 32.9 0 .6-.2 1.2.3 1.7v.6c-.5 1.6-.5 3.1 0 4.7v12.3c-.9 5-.5 10.2-2 15.2-3.8 12.5-9.7 23.8-18.4 33.7-12.1 13.8-26.8 23.1-44.5 27.7-4.1 1.1-8.4 1.2-12.7 1.3-1.2.1-2.4-.3-3.5.3H81.1c-1-.6-2-.2-3-.3-9.1 0-17.6-2.2-25.8-5.9-10.7-4.8-20.1-11.3-28.2-19.7-10.7-11.3-18.3-24.4-22-39.7-1-4.1-.8-8.4-1.5-12.6v-2.9c.6-1.2.2-2.6.3-3.8V81C.4 63.2 7.2 48.1 17.5 34.4 29.9 18.1 46.2 7.3 66.2 2.1 70.7.9 75.4 1.3 80 .5h2.9c3.6.6 7.3.6 11 .1z"/><path class="bst1" d="M79.9.6c-4.5 1.3-9.2 1.6-13.7 2.9C36.8 11.6 16.7 30 5.9 58.4c-2.7 7.1-4.5 14.4-4.8 22 0 .5-.2.5-.5.1V2.8C.6 1 1 .6 2.8.6h77.1zm95.7 79.3c-1.1-5.3-1.8-10.6-3.3-15.8-3.6-12.6-9.7-23.8-18.3-33.6-13.5-15.4-30.5-24.7-50.5-28.6-2.4-.5-4.9-.3-7.2-1.3h77.1c1.8 0 2.2.4 2.2 2.2v77.1zM.6 97.4c1.5 4.8 2 9.9 3.4 14.8 4.4 15.2 12.2 28.4 23.7 39.3 12.4 11.8 27.2 19.3 44 22.7 2.2.4 4.4.6 6.6.9.4.2.4.4 0 .5H2.9c-1.8 0-2.2-.4-2.2-2.2-.1-25.3-.1-50.7-.1-76zM98 175c11.7-1.1 22.6-4.8 32.7-10.4 14.1-7.8 25.2-18.8 33.2-32.8 5.9-10.3 9.6-21.4 11-33.2.1-.5.1-1 .6-1.2v76c0 1.8-.4 2.2-2.2 2.2-25.1-.1-50.3 0-75.4 0-.3-.2-.3-.4.1-.6z"/><path d="M93.9.6c-3.7 1-7.4.9-11.1 0h11.1z" fill="#00c0b7"/><path d="M1.2 83.4V91c-.2.4-.4.4-.6 0v-7.6c.2-.4.4-.4.6 0z" fill="#00b4a9"/><path d="M175.6 85.2c-.8-1.6-.9-3.1 0-4.7v4.7z" fill="#00b6ab"/><path d="M.6 91h.6c-.1 1.2.3 2.4-.6 3.5V91z" fill="#00bfb6"/><path class="bst6" d="M98 175c-.1.2-.1.4 0 .5h-3.5c1.1-.7 2.3-.5 3.5-.5z"/><path d="M1.2 83.4H.6v-2.9c.2-.1.3-.1.5-.1 0 1 0 2 .1 3z" fill="#0dc7bf"/><path class="bst6" d="M78.2 175.6c.1-.2.1-.4 0-.5 1-.1 2-.1 2.9.5h-2.9z"/><path class="bst8" d="M128.4 91.5c.7 1.4.6 2.8.5 4.3-.2 6.3.8 12.7-.6 18.9-1.8 8-7.2 12.6-15.2 14.3-.4.3-.9.4-1.4.4-6.4-.3-12.7-.1-19.1-.1-.2 0-.3 0-.5.1-.3.1-.6.1-.9.1-.5 0-.9-.2-1.3-.5-.5-.5-1.1-1-1.6-1.5-5-4.3-9.4-9.1-14-13.8-1-1-2.3-2.3-.7-3.9.9-.4 1.8-.3 2.5.1 2.8 1.5 6.3 1.2 8.9 3.1 1.1.9 2.2.8 3.4.1.9-1.3 2.4-1.2 3.7-1.5 12.2-3 20-13.1 19.7-25.6-.1-2.8-.9-5.5-1.8-8.2-.4-1.2-.9-2.3-.3-3.6 1.7-1.5 2.9-.3 4 .8 4.6 4.7 9.6 9.1 13.8 14.1.6.8 1 1.5.9 2.4z"/><path class="bst9" d="M73.5 110.2c-.1 1.3 1 1.8 1.7 2.5 4.7 4.8 9.4 9.5 14.1 14.3-.3 2-2 1.5-3.2 1.5-6.6.1-13.3 0-19.9 0-1.2 0-2.3 0-3.5.2-.3.1-.7.1-1 .2-.2 0-.3 0-.5.1-10.8-2.4-16.3-9.3-16.3-20.3 0-1.6 0-3.3.1-4.9.4-.4.5-.9.9-1.3 3.4-4.2 7.4-7.8 11.2-11.6 1-1 2.1-2.4 3.9-1.7.8.6 1.1 1.6 1.3 2.5 1.3 6.3 4.5 11.4 9.3 15.5 1 .8 2 1.6 1.9 3zm53.6-20.3l-14.4-14.1c-.7-.7-1.2-1.8-2.5-1.7-1.5.2-2.4-.8-3.1-1.8-4.2-5.4-9.7-8.6-16.3-10-.4-.1-.7-.3-1-.5-1.8-1.8-.4-3.2.8-4.4 3.6-3.6 7-7.4 11-10.7.5-.5 1-1 1.8-1.2h.4c.1 0 .3 0 .4.1 2.4.4 4.9.1 7.3.1.3 0 .5-.1.8-.2.1 0 .2-.1.4-.1 9.2 2 15.2 8 15.9 15.8-.2 8.5 0 17-.1 25.5-.2 1.2.2 2.6-1.4 3.2z"/><path class="bst10" d="M45.4 61.2c.5-6.9 6.1-12.9 12.8-15.1.8-.3 1.7-.5 2.5-.7.4-.2.9-.2 1.3-.1.5.1.9.3 1.4.4 4.7.1 9.5 0 14.2.1 1.1 0 2.3-.2 3.4.5 1.4 2-.2 3.3-1.4 4.5-6.4 6.5-12.9 12.9-19.3 19.4-3.7 3.7-7.3 7.5-11.2 11.1-1 .9-2.3 2.6-3.6.2-.1-6.9.2-13.6-.1-20.3z"/><path class="bst9" d="M46.1 82.3c4-3.9 8.1-7.8 12.1-11.8 7.7-7.7 15.3-15.5 22.9-23.2.3-.7.4-1.5 1.3-1.7.3 0 .6-.1.9-.1 1.3 0 2.7-.1 4 .2.3.1.4.4.6.6.2 1.7-1.1 2.6-2.1 3.6-6 5.8-11.8 11.6-17.7 17.4-6.3 6.2-12.4 12.5-18.6 18.8-.9.9-1.7 1.9-2.8 2.5-.6.2-1.1.4-1.7 0v-5.9c.3-.2.6-.4 1.1-.4z"/><path d="M127.1 89.9c.7-1.2.6-2.6.6-4V64.5c0-1.1-.2-2.3.7-3.3.1.4.4.7.4 1.1v28.5c0 .2-.3.4-.5.7-.3-.5-.8-1.1-1.2-1.6z" fill="#c5eae5"/><path d="M61.9 45.6c-.4-.1-.8-.1-1.2-.2.8-.5 1.6-.5 2.5-.5h41.2c.2.4.1.6-.3.8-.3 0-.7.1-1 .2-4.9.9-9.8.4-14.7.3-.3-.1-.7-.3-1-.4-1.6-.1-3.2-.1-4.9 0-6.9.3-13.8.7-20.6-.2z" fill="#00cac2"/><path d="M46.1 82.3c-.4.2-.7.4-1.1.5 0-6.6-.1-13.1-.1-19.7 0-.6.3-1.3.4-1.9.9 1 .7 2.2.7 3.3.1 5.9.1 11.8.1 17.8zM45 88.7c.3-.2.7-.4 1-.6.5.3 1 .7 1 1.3.2 4.7 1.2 9.4-1 13.9-.4.2-.7.4-1.1.6.1-5.1.1-10.2.1-15.2z" fill="#edf6f3"/><path d="M91.6 130.1H63.8c-.8 0-1.9.6-2.6-.6.6-.7 1.5-.9 2.4-.9 8.5 0 17-.1 25.5 0 .4 0 .8.1 1.1.2.3.1.7.2 1 .3.5.3.6.6.4 1z" fill="#00a698"/><path d="M91.6 129.5H61.3v-.7c.9-.6 1.9-.5 2.8-.5 8.1 0 16.1.1 24.2-.1 1 0 1.9.2 2.8.6.2 0 .3 0 .5.1.1.2.1.4 0 .6z" fill="#00c9c0"/><path d="M91.6 129.5v-.6l.1-.1c6.8-.2 13.5-.4 20.3.1h1.2l-.6.6c-7 .5-14 .5-21 0z" fill="#00928b"/><path d="M91.6 129.5h21c-1 .8-2.2.6-3.3.6H91.6v-.6z" fill="#00aea0"/><path d="M104.4 45.4V45c2.7.1 5.5-.5 8.1.4l.1.2c-2.7.7-5.5 1-8.2-.2z" fill="#00c9c1"/><path class="bst1" d="M89.9 61.2c6.3.4 11.5 3.3 15.9 7.6 1.6 1.6 3 3.5 4.5 5.2.2 2.4 1.7 4.5 2.2 6.8 3.7 15.4-6.6 30.3-22.3 32.3-.6.1-1.1.3-1.7.4-1 .6-2.1.6-3.1 0-4.2-.5-8-2-11.9-3.4-7.2-5.2-12-11.9-12.9-21-2-1.6-1.3-3.8-1.1-5.7 1.7-12.6 12.7-23.9 27-23.9 1.4.2 2.3 1.2 3.4 1.7z"/><path class="bst19" d="M61.3 128.3c1-.8 2.2-.6 3.3-.6h20.5c1.4 0 2.9.1 4.2-.7l1.2 1.2c-1.2.6-2.5.3-3.7.3H64.1c-.9.1-1.9.3-2.8-.2z"/><path class="bst20" d="M61.3 128.3h29.3c.2.2.4.4.6.5H61.4c-.2-.1-.2-.3-.1-.5z"/><path d="M112 128.9c-6.8 0-13.5-.1-20.3-.1 4.7-1.1 9.4-.3 14.1-.4 2-.1 4.2-.6 6.2.5z" fill="#007576"/><path d="M85.4 113.6c1-.3 2.1-.3 3.1 0 .2 0 .4.1.6.1.2.1.6.4.3.4-1.6.1-3.2.1-4.8 0-.3 0 .1-.4.3-.4.1 0 .3 0 .5-.1z" fill="#006f6f"/><path class="bst10" d="M89.9 61.2C74 59.3 60.8 71.6 60.7 87v2.3l-12 11.7c-.8.8-1.7 1.5-2.6 2.3V88.1l9.1-9.4C65.1 68.7 75 58.9 84.9 49c.8-.8 1.7-1.6 2.6-2.3 4.6-1.1 9.2-.4 13.8-.4.5 0 .8.4.8 1-3.7 3.7-7.4 7.5-11.1 11.3-.6.7-1.9 1.3-1.1 2.6z"/><path class="bst23" d="M102.1 47.3c-2.8-1.3-5.7-.4-8.6-.6-2-.1-4.1 0-6.1 0v-.5c-.4-.2-.4-.4 0-.5h.6c4 .4 8 .1 12.1.2 1 0 2.1-.3 3.1.3l-1.1 1.1z"/><path class="bst24" d="M103.3 46.1H91.2c-1 0-2.1.2-3.1-.5h15.7c.1.1.2.2.1.3 0 .1-.1.1-.1.1-.2 0-.3.1-.5.1z"/><path class="bst20" d="M103.8 46v-.4c.2-.1.4-.1.6-.2 2.7.1 5.5.1 8.2.2v.5c-2.9.5-5.8.4-8.8-.1z"/><path class="bst19" d="M103.9 46.1c2.9 0 5.8 0 8.7-.1-2.9 1.1-5.8 1-8.7.1z"/><path class="bst24" d="M61.9 45.6h21c.1.1.3.2.4.3-.1.1-.3.1-.4.2-.2 0-.3 0-.5.1-6.6.5-13.2.5-19.8 0-.4-.3-.6-.4-.7-.6z"/><path class="bst23" d="M62.4 46.1h19.8L81 47.3c-1.4-1-3-.5-4.5-.6-4.6-.4-9.4.7-14.1-.6z"/><path d="M59.4 56.1c1.3 1.1 1.7 2.4.6 3.8-.9 1.2-2.2 1.6-3.5.4-.7-2.7 1.6-3.1 2.9-4.2z" fill="#feb6aa"/><path d="M59.4 56.1c-.2 1.9-2.3 2.5-2.9 4.1-2-1.8-1.3-3.1.6-4.4.6-.4 1.2-.4 1.8 0 .2.1.4.2.5.3z" fill="#fe887d"/><path d="M58.9 55.9h-1.8c-.3-1 .4-1 1-1 .8 0 1.1.3.8 1z" fill="#e4fbf9"/><path d="M82.8 46v-.5h4.7v.5c-1.6.1-3.1.1-4.7 0z" fill="#d6eee9"/><path d="M101.5 72.4c6.2 6 7.9 13.2 5.3 21.3-2.6 8.2-8.5 13.1-17 14.3-6.7.9-12.7-.9-17.6-5.8.5-4.2 3.8-6 7-7.8h.9c.9.1 1.6.5 2.4.9 4.2 2 8.3 1.4 11.2-1.7 2.9-3 3.3-7.2 1-11.3-.4-.7-.7-1.4-1.1-2.1-.1-.3-.1-.6 0-.8 2.3-2.8 4.1-6 7.9-7z" fill="#00cbc4"/><path d="M79.3 95.1c-2.5 2.2-4.9 4.5-7 7.1-6.4-6.5-8-14.1-4.9-22.5 2.9-7.8 8.7-12.4 17.2-13.2 1.6.5 3.1.5 4.7 0 4.9.3 9 2.2 12.3 5.8-2.4 2.5-4.3 5.4-7.6 7-2.2.4-3.7-1.2-5.6-1.8-1-.6-1.9-.6-2.9 0-1.2.6-2.4 1.2-3.8 1.3-.4 0-.7-.1-1.1-.2-.8-.2-1.7-.8-2.2.3-.4.9.4 1.3 1 1.7.4.3.7.6.8 1.1-.4 1.8-2.7 2.5-2.5 4.7.2 1.8.2 3.5 1.1 5 .6 1.2 1.3 2.3.5 3.7z" fill="#6fdcd7"/><path d="M89.2 66.5c-1.6.9-3.1.9-4.7 0 1.6-.2 3.2-.2 4.7 0z" fill="#61d9d4"/><path class="bst0" d="M93.9 79.9c3.4 2.1 3.8 5.4 3.4 8.9-.6 4.3-3.3 7-7.4 8.5-3.8 1.3-7-.1-10-2.2-1-2.7 1.1-3.7 2.7-5 .3-.1.6-.1.9-.1.8.3 1.6.7 2.4.9 3.1.6 5.2-1.3 4.9-4.4-.1-1.1-.4-2.1-.5-3.2.5-1.8 1.4-3.3 3.6-3.4z"/><path d="M93.9 79.9c-1 1.2-1.9 2.4-2.9 3.6-.2.2-.4.3-.7.4-1-.1-2.1-.3-3.1-.3-2.5 0-4.1 1.7-4 4.1 0 .9.4 1.9-.3 2.7-.2 2-2.7 2.6-3 4.7h-.6c-1.4-2.6-3.1-4.9-2.9-8.2.2-2.6.7-4.6 3.6-5.1-.2-1.5.3-2.7 1.6-3.5.9-1.2 2.5-1 3.7-1.7 1.1-.6 2.2-.6 3.3 0 1.9.8 3.9 1.2 5.3 2.8v.5z" fill="#00c5bd"/><path d="M81.6 78.2c.2 1.5.1 2.9-1.6 3.5-1.5-.1-3 0-3.5-1.9-.3-1.3.2-2.3 1.4-2.9 1.6-.8 2.7.2 3.7 1.3z" fill="#f8fcfc"/><path d="M88.6 76.5h-3.3c1.1-1.1 2.2-1.1 3.3 0z" fill="#78ded9"/><path class="bst8" d="M90.5 83.5h.5c2.2 4.5.9 8-3.2 8.8-1.8.3-3.5.1-4.4-1.8 1.1-3.6 3.6-5.8 7.1-7z"/><path d="M90.5 83.5l-7 7c-.2 0-.4-.1-.6-.1-1.6-3.2-1.4-5.4.7-7 2.2-1.8 4.6-1.7 6.9.1z" fill="#45a5a4"/></svg><svg version="1.1" id="por-2" x="175" xml:space="preserve" width="175" height="175" xmlns="http://www.w3.org/2000/svg"><style>.cst0{fill:#feebb3}.cst12{fill:#feeeb6}</style><path class="cst0" d="M.6 82.3v-3.5c.6-8.5 2.5-16.7 5.9-24.5C18.8 26.2 39.9 8.6 69.9 1.7c3.3-.8 6.7-.6 10-1.1h2.9c3.4.6 6.8.1 10.2.3h3.4c12.8.1 24.4 4.2 35.3 10.4 19.5 11.1 32.6 27.4 40.1 48.5 2.1 5.8 3.2 11.8 3.4 17.9 0 .6-.2 1.2.3 1.7v2.3c-.5 1.2-.5 2.3 0 3.5v9.9c-.6.9-.2 2-.3 3-.1 8.5-2.4 16.4-5.6 24.2-4.2 10.1-10.1 19.3-17.7 27.1-11 11.4-24.2 19.3-39.4 23.7-5 1.4-10 2.3-15.2 2.2-1.3.1-2.7-.3-4 .3H81c-.9-.6-2-.2-3-.3-15.4-.4-28.9-6.5-41.3-15.2C18.6 147.3 7.2 129.7 1.9 108c-.9-3.5-.6-7.1-1.4-10.6v-3.5c.6-3.9.6-7.8.1-11.6z"/><path d="M79.9.6C74.8 1.7 69.7 2.7 64.7 4c-14 3.7-26.1 10.7-36.6 20.6C14.2 37.7 5.8 53.7 2 72.3c-.4 2.1-.1 4.5-1.4 6.4v-76C.6.9 1 .5 2.8.5c25.7.1 51.4.1 77.1.1zm95.7 78.7c-1-4.4-1.8-8.9-2.9-13.2-3.6-14.1-10.4-26.4-20.3-37.1-10.4-11.4-23-19.4-37.7-24.1C108.9 3 103 1.6 96.9 1.1c-.2-.1-.3-.2-.2-.4.1-.1.1-.2.2-.2h76.6c1.8 0 2.2.4 2.2 2.2-.1 25.6-.1 51.1-.1 76.6zM.6 97.4c1.6 4 1.7 8.3 2.8 12.4 3.8 13.9 10.2 26.3 19.9 37 10.4 11.5 23 19.5 37.6 24.4 5.6 1.9 11.4 3.2 17.3 3.8.4.2.4.4 0 .6H2.8c-1.8 0-2.2-.4-2.2-2.2v-76zM97.4 175c8.6-.5 16.7-3 24.6-6.3 11-4.5 20.7-11.1 28.9-19.7 13.6-14.3 21.8-31.4 24.1-51.1.2-.3.4-.3.6 0v75.4c0 1.8-.4 2.2-2.2 2.2-25.3-.1-50.7 0-76 0-.3-.1-.3-.3 0-.5z" fill="#fefefe"/><path d="M.6 82.3c1 3.9 1 7.8 0 11.7V82.3z" fill="#feeec0"/><path d="M93.4 1.2c-3.5-.3-7.1.7-10.5-.6h10.5c.2.1.3.2.2.4l-.2.2z" fill="#feefc7"/><path d="M97.4 175v.6h-4.1c1.3-1.1 2.8-.4 4.1-.6z" fill="#fef2d0"/><path d="M93.4 1.2V.6h3.5v.5c-1.2 0-2.4 0-3.5.1z" fill="#fef7e2"/><path d="M175.6 85.2c-.9-1.2-.9-2.3 0-3.5v3.5z" fill="#feeebf"/><path d="M175.6 98h-.6c.1-1-.3-2.1.6-2.9V98z" fill="#fef7e3"/><path d="M78.2 175.6v-.6c1 .1 2.1-.3 2.9.6h-2.9z" fill="#fef6df"/><path d="M112 45.5c9.4 1.8 15.7 9 15.7 18.5.1 6.5 0 13-.1 19.5-1.7.3-2.4-1-3.3-1.9-5.5-5.4-11-11-16.5-16.4-1-.9-1.8-2.1-3.1-2.6-.5-.2-1-.4-1.6-.3-9.4 2.4-18.9 4.7-28.3 7.1-3.8 1-3.9 1-3.9 4.9v17.8c0 2.7-.9 4.4-3.6 5.5-5.4 2.1-6.6 8.1-2.7 12.4.8.9 1.7 1.6 2.5 2.5 3.6 4.5 8 8.1 11.9 12.3 1 1 2.6 2 1.2 3.9-6.9.6-13.8.1-20.7.3-8-.8-15.6-8.6-15.7-16.9-.2-16.5-.2-33 0-49.5.1-8.3 6.9-15.4 15.7-17 .3-.2.7-.3 1.1-.3 16.8.1 33.6.1 50.5 0 .3-.1.6 0 .9.2z" fill="#fe877b"/><path d="M105 61.8c1.7.3 2.5 1.8 3.5 2.8 6.4 6.2 12.8 12.5 19.2 18.8h.1c.2.3.3.6.3 1 0 8.7-.2 17.4.1 26.1.1.6 0 1.1-.3 1.5-1.4 9.2-6.5 14.9-15.2 16.9-.3.1-.7.2-1 0-9.6-.2-19.1-.1-28.7 0-1.2.3-2-.1-2.3-1.3-3.9-3.9-7.7-7.8-11.6-11.8-.8-.8-1.9-1.4-1.9-2.8.8-1 2.1-1 3.2-1.1 4.7-.5 7.3-3.2 7.3-8.1.1-7.7 0-15.3.1-23 0-1.4-.7-3.5 1.7-4 .5 7.7.1 15.5.2 23.3 0 .9 0 1.8.1 2.7.2.4.5-.3.2 0-.1.1-.2.1-.2-.2 0-8.6-.1-17.3.1-25.9.1-.5.4-1 .8-1.1 4.3-1.3 8.5-3.1 13.1-2.8 1.6.5 2.3 1.6 2.3 3.3v10.4c0 1.4-.5 2.4-1.6 3.2-.8 1-1.9 1.6-2.8 2.5-2.8 2.6-3.7 5.6-2.5 8.6 1.1 3 3.9 4.9 7.2 5 3.5.1 5.9-1.5 7.4-4.9.2-.4.3-.7.4-1.1.5-2.9.2-5.8.2-8.7V65.7c-.2-1.4-.6-2.8.6-3.9z" fill="#ca1e40"/><path d="M80.6 127.7c.6.4 1.2.8 1.7 1.2 6.1-.5 12.2-.2 18.3-.2 3.8 0 7.6-.2 11.3.2.2.1.4.1.6.2-.7.5-1.5.8-2.4.8l-46.7-.3c-1.3 0-2.7.1-4-.5.9-.9 2-.6 3-.6h15c1.2-.2 2.3.1 3.2-.8z" fill="#fe8378"/><path class="cst12" d="M59.6 44.9c0-1.1.8-.6 1.2-.6h50c.4 0 1.3-.5 1.2.6-1.2.7-2.4.5-3.7.5h-45c-1.3.1-2.6.2-3.7-.5z"/><path d="M59.6 44.9H112c0 .2.1.3.1.5-.2 0-.5.1-.7.1-17.1.4-34.2.4-51.2 0-.2 0-.5-.1-.7-.1 0-.1 0-.3.1-.5z" fill="#feae91"/><ellipse cx="42.9" cy="87.2" rx=".2" ry="34" fill="#feefb6"/><path d="M127.6 84c0-.2.1-.4.1-.6h.6c.2.3.3.7.3 1.1v24.7c0 .9.3 1.9-.3 2.8h-.5c-.1-.4-.1-.8-.2-1.2-.3-8.9-.2-17.8 0-26.8z" fill="#fab494"/><path d="M128.3 112c0-9.3 0-18.7.1-28 .2-.3.4-.3.6 0v25c-.1 1 .2 2.1-.7 3z" fill="#fef3b8"/><path class="cst12" d="M128.9 84h-.6V63.1h.6V84z"/><path class="cst0" d="M93.3 73.5c-4.6.9-9.1 2-13.5 3.4-.1.3-.2.3-.5.1-1 .7-.5 1.8-.5 2.7v22.4c0 8.6-3.2 11.6-11.7 11-3.8-1.9-6.1-5.6-5.8-9.2.4-3.8 2.8-6.7 6.8-7.7 1.9-.4 1.9-1.6 1.9-3V72c0-1.3 0-2.4 1.7-2.9 10.7-2.6 21.4-5.2 32.2-7.9.6.7.6 1.6.6 2.5 0 12.4.1 24.8-.1 37.1-1.4 4-4.4 6.2-8.5 6-3.8-.1-7.1-2.7-8.1-6.3-1.1-3.7.5-7.6 3.8-9.8.6-.4 1.2-.7 1.8-1 1.9-.7 2.5-2 2.4-4-.2-3.2-.2-6.4 0-9.6 0-1.8-.8-2.5-2.5-2.6z"/><path d="M104.3 100.9c-.8-1-.5-2.2-.5-3.4V61.2c.5-.1.9.1 1.1.5v34.8c0 1.6.2 3.1-.6 4.4z" fill="#fef0b7"/><path d="M60.1 45.6h51.2c-.8.8-1.8.5-2.8.5H62.8c-.8 0-1.8.2-2.7-.5z" fill="#fe7f77"/><path d="M93.3 73.5c1.9-.9 3-.9 2.8 1.8-.2 3.9-.2 7.8 0 11.6.1 2.2-.8 3-2.8 2.9 1.7-1.4 1.9-3.2 1.8-5.3-.1-2.6-.1-5.2 0-7.8.1-1.5-.4-2.5-1.8-3.2z" fill="#c8183c"/><path d="M79.3 77.1c.1-.1.3-.2.5-.1 1.3 1.2 0 2.5 0 3.8.2 8 .1 16.1-.5 24.1V77.1z" fill="#c7173c"/><path d="M111.9 128.8c-9.9.4-19.8.3-29.7 0 .5-.5 1.2-.5 1.9-.5h25.8c.8 0 1.5 0 2 .5z" fill="#c8173c"/><path d="M127.6 84v26.8c-.6-.6-.5-1.4-.5-2.2V86.3c.1-.8 0-1.6.5-2.3z" fill="#c91a3e"/><path d="M95.3 107.4h1.9v.3h-2c0-.1.1-.2.1-.3z" fill="#c61239"/></svg><svg version="1.1" id="por-3" y="175" xml:space="preserve" width="175" height="175" xmlns="http://www.w3.org/2000/svg"><style>.dst0{fill:#cfd2d3}.dst8{fill:#3e3e3f}.dst9{fill:#929498}.dst11{fill:#a6a9ac}.dst19{fill:#8e9094}</style><path class="dst0" d="M175.6 79.3v18.1c-.7 3.7-.4 7.5-1.4 11.2-5.9 23.6-19 42-39.7 54.9-8.2 5.1-17.1 8.7-26.5 10.9-3.5.8-7.1.9-10.7.9-1.3.1-2.7-.3-4 .3H81c-.9-.6-2-.2-3-.3-14.8-.2-27.8-5.9-39.8-14C19.6 148.7 7.7 131 2.1 109.2c-1-3.9-.6-7.9-1.5-11.7V94c.6-2.8.1-5.6.3-8.4-.1-1.3.3-2.6-.3-3.8v-2.9c.6-6.8 1.6-13.6 4.1-20.1C16.2 28.4 37.6 9.4 69 1.8c3.6-.9 7.3-.5 10.9-1.2h2.9c3.4.6 6.8.1 10.2.3h3.4c12.1-.1 23.2 3.6 33.6 9.3 22.8 12.6 37.5 31.6 44 56.8 1.1 4 .8 8.3 1.6 12.3z"/><path d="M79.9.6c-5 1.5-10.2 1.9-15.2 3.3-13.9 3.9-26.1 10.8-36.6 20.7C14.2 37.7 5.8 53.7 2 72.3c-.4 2.1-.1 4.5-1.5 6.4v-76C.5.9.9.5 2.7.5c25.8.1 51.5.1 77.2.1zm95.7 78.7c-1.1-5-2-10-3.4-14.9-3.6-13.2-10.2-24.8-19.4-35-12.6-13.9-28.1-22.6-46.3-26.8-3.2-.7-6.5-1-9.7-1.5-.4-.2-.4-.3 0-.5h76.6c1.8 0 2.2.4 2.2 2.2v76.5zM.6 97.4c1.6 4 1.7 8.3 2.8 12.4 3.8 13.9 10.2 26.3 19.9 37 10.4 11.5 23 19.5 37.6 24.4 5.6 1.9 11.4 3.2 17.3 3.8.4.2.4.4 0 .6H2.8c-1.8 0-2.2-.4-2.2-2.2v-76zM97.4 175c8.5-.6 16.6-3 24.4-6.2 10.4-4.3 19.7-10.4 27.7-18.4 14.2-14.2 22.5-31.3 25.4-51.2.1-.7 0-1.4.6-1.9v76c0 1.8-.4 2.2-2.2 2.2-25.3-.1-50.7 0-76 0-.3-.1-.2-.3.1-.5z" fill="#fefefe"/><path d="M93.4 1.1c-3.5-.3-7.1.7-10.5-.6h10.5c.3.3.3.4 0 .6z" fill="#dcddde"/><path d="M1.2 85.2c-.3 2.9.7 5.9-.6 8.8v-8.8c.2-.4.4-.4.6 0z" fill="#d7d9da"/><path d="M97.4 175v.6h-4.1c1.3-1 2.8-.5 4.1-.6z" fill="#e2e3e4"/><path d="M1.2 85.2H.6v-3.5c.9 1 .4 2.3.6 3.5z" fill="#dedfe0"/><path d="M93.4 1.1V.5h3.5V1c-1.2.1-2.4.1-3.5.1z" fill="#edeeee"/><path d="M78.2 175.6v-.6c1 0 2.1-.3 2.9.6h-2.9z" fill="#ebecec"/><path class="dst8" d="M128.9 91.6c0 6.9.3 13.7 0 20.6-.4 8.2-6.5 14.7-15.1 16.8h-.5c-7-.1-14-.1-21 0-1 .3-1.9-.1-2.7-.6-5.6-5.1-10.8-10.6-16.1-15.9-1.2-1.2-2.3-2.5-1.2-4.3 3.2-2.1 6.9-1.5 9.2 1.4.6.8 1 1.6 1.6 2.4 2.6 1.6 5.3 1.5 7.9 0 2.1-4.1 5.3-5.9 10-4.8 2.4.6 6.4-3.6 5.9-6.1-.8-4.1.3-7.1 4-9.4 2.4-1.5 1.8-7.3-.6-9.2-4-3.1-4.7-6.9-2-10.8 1.5-.7 2.4.3 3.3 1.2 5.3 5.2 10.5 10.5 15.8 15.7.6.9.9 2 1.5 3z"/><path class="dst9" d="M44.9 83.4c0-6.5-.1-13-.1-19.5.1-9.4 6.4-16.8 15.8-18.4.3-.2.7-.2 1-.1 6.6.2 13.1 0 19.7.1 1.5.2 1.3 1.2.8 2.1-.5.9-1.2 1.5-1.9 2.2C69.7 60.4 59.1 71 48.5 81.5c-.9 1-1.8 2.4-3.6 1.9zm0 21V88.7c.7-1.7 1.9-3.1 3.2-4.4C60.3 72.2 72.4 60 84.6 47.8c1-1 1.8-2 3.2-2.5.3.1.6.1.9.2 4.6.2 9.2-.1 13.8.1 2.1 1 .6 2.2-.1 3-4.3 4.4-8.3 9-13.1 12.7-.7.3-1.5.5-2.3.4-2.4-.2-4.1.7-5.5 2.9-1.7 2.7-4.5 3.5-7.6 2.9-3.7-.7-7.4 3-6.8 6.7.6 3.5-.3 6.5-3.4 8.2-2.1 1.2-1.9 3.2-2.3 5-.5 2.3-1.9 4.2-3.5 5.8l-9.6 9.6c-.9.8-1.7 2.1-3.4 1.6z"/><path d="M128.9 91.6l-17.7-17.4c-.8-.8-1.7-1.6-2.6-2.4-2-.3-3.1-1.6-3.4-3.5.2-1.1 1-1.9 1.7-2.6l13.5-13.5c.7-.7 1.5-1.5 2.7-1.6 3.8 2.9 5.7 7 5.8 11.6.2 9.8 0 19.6 0 29.4z" fill="#939598"/><path class="dst9" d="M72.4 108.6c-.4 1.6.8 2.3 1.7 3.1 5.2 5.3 10.5 10.7 15.8 16-.4 2-2 1.2-3 1.2-8.7.1-17.5 0-26.2.1-4-.2-7-2.3-9.9-4.7-.8-1.3 0-2.2.8-3.1 4.7-4.8 9.4-9.5 14.2-14.2.7-.7 1.5-1.3 2.5-1.3 1.8.4 3.2 1.3 4.1 2.9z"/><path class="dst11" d="M123.1 50.7c-5.5 6.2-11.4 11.9-17.5 17.6-.2.2-.5.3-.7.3-1.8-1.2-3.7-1.9-5.9-1-1.3.6-2.7 0-3.7-1.1-.6-1.1-1.3-2.1-2.4-2.9-.6-.6-1.1-1.3-2-1.5-.7-.3-1.4-.6-1.7-1.4l11.7-12c.8-.8 1.5-1.7 2.3-2.6-3.8-.7-7.6-.1-11.4-.3-1.2-.1-2.5.2-3.7-.2h-.6c-1.5 1.1-3.1 1.6-4.9.6-4.3-.7-8.7-.1-13-.3-2.8-.1-5.6.3-8.4-.2-.2 0-.4-.1-.7-.1 1-.8 2.2-.5 3.4-.5 15 0 30-.1 45 .1 5.5-.1 10.6 1 14.2 5.5zm-54.8 55.4c-5.7 5.6-11.3 11.2-17 16.8-.3.3-.4.9-.5 1.3-5.9-5.4-6.3-12.5-5.9-19.8l14.4-14.1c.8-.8.6-2 1.3-2.8 1.4.9 1 2.5 1.6 3.8.2.9.7 1.6 1.4 2.2.6.9 1.5 1.4 2.4 1.8 1.3 1 1.8 2.5 1.3 3.9-.8 2.4 0 4.3 1.2 6.2 0 .3 0 .5-.2.7z"/><path class="dst11" d="M82.8 45.5h4.8c-.2.9-.8 1.5-1.4 2.2-13.4 13.4-26.8 26.7-40.1 40.1-.3.3-.8.6-1.1.9v-5.3l7.5-7.2c9.2-9.1 18.3-18.3 27.5-27.5.8-.8 1.5-1.7 2.3-2.6.1-.3.2-.5.5-.6z"/><path d="M60.7 128.9c1-.9 2.2-.6 3.3-.6h22.6c1.1 0 2.3.3 3.3-.6.6.4 1.1.8 1.7 1.2 7.4-.5 14.8-.3 22.1-.1v.3c-.6.4-1.2 1-2 1-15.7-.8-31.4-.4-47.1-.5-1.3-.2-2.7 0-3.9-.7z" fill="#8f9195"/><path d="M129.6 92.2V63.3h.5v28.9c-.2.3-.4.3-.5 0z" fill="#d2d5d6"/><path d="M129.6 92.2h.5v19.5h-.5V92.2z" fill="#d5d8d9"/><path d="M68.3 106.1v-.5c1.6-3.5 4.1-6 7.6-7.4 2.8 1 5.1 3 7.9 3.9.2.1.4.3.7.4 1.6 1 3.5.1 5.2.7l.1-.1c0-.1-.1-.2-.1-.3.1-.3.2-.5.4-.7 2.5-1.4 5.2-2.4 7.3-4.6 4.8-5.1 5.7-12.1 2.1-18.1-.6-1.1-1.6-2-1.7-3.3 1.6-3.4 4.4-5.8 7.4-7.9h.6l3 3.6c-.8 2.3-2 4.6-.4 7.2.6 1 1.2 2 2.3 2.4 2.3.7 3 2.2 2.7 4.4-.2 1.2-.1 2.5 0 3.8.2 1.6-.6 2.4-2 3.1-3.4 1.7-4.6 4.4-3.3 7.8.6 1.7.4 2.9-1 4-1 .9-2 1.8-2.9 2.9-1.1 1.3-2.2 1.5-3.8.9-3.5-1.3-6.2-.1-7.9 3.1-.2.4-.5.8-.8 1.2-3.1.8-6.3.8-9.4 0-1.2-1.3-1.4-3.2-3.4-4.1-2.3-1-4.3-.7-6.4 0-2 .3-2.8-1.6-4.2-2.4z" fill="#bbbdbf"/><path d="M113.7 128.8c-7.4.6-14.8.4-22.1.1.8-.7 1.8-.6 2.8-.5 6.4.2 12.9-.6 19.3.4z" fill="#3b3b3c"/><path d="M82.2 112.6h9.4c-1.8 1.5-7.6 1.5-9.4 0z" fill="#c1c3c5"/><ellipse cx="114" cy="87.2" rx=".2" ry="5" fill="#39393b"/><path class="dst19" d="M82.8 45.5c-.2.2-.4.4-.5.6H64.4c-1 0-2.1.3-3-.5 7.1-.1 14.2-.1 21.4-.1z"/><path class="dst0" d="M75.8 98.7c-2.5 2.3-5 4.6-7.6 6.9-2.3-1.5-3.5-3.2-2-6 .7-1.3.6-2.8-.8-3.9-.6-.7-1.1-1.6-2-2.1-.7-.5-1.4-1-2.1-1.6-1-1.4-.4-3.1-.6-4.6-.2-2.8 0-5.2 3.4-6.5 2-.7 3.1-3.6 2.4-5.1-2.2-4.6 1.2-6.4 3.6-8.9 1-1 1.9-1.4 3.3-.9 4.2 1.3 6.2.4 8.4-3.5.7-1.2 1.6-1.9 3-1.8 1.5 0 3.1 0 4.7-.1l2.4.6c.5.7 1 1.5 1.5 2.1.7.9 1.6 1.6 2.4 2.4 1.2 1.1 2.5 1.5 4 .7 2.5-1.4 4.2-.4 5.5 1.7-1.5 3.3-4.5 5.2-7 7.6-1.4.7-2.3-.5-3.3-1.1-1.6-.9-3.3-1.5-4.9-2.3-.2-.1-.5-.3-.7-.4-1.6-.9-3.1-.9-4.6.1-.2.2-.4.3-.7.4-2.5 1.1-5 2.1-7 4-5.2 5-6.1 12.4-2.4 18.6.5 1.2 1.9 2.1 1.1 3.7z"/><path class="dst19" d="M88.1 45.6c4.6 0 9.2-.1 13.8 0 .5 0 1.2-.4 1.3.6H91.1c-.9-.1-2 .1-3-.6z"/><path d="M95.5 65.8c-1.5 0-2.5-.8-2.8-2.3-.2-.6.1-.7.6-.6.9.9 2.2 1.5 2.2 2.9z" fill="#4d4d4f"/><path d="M93.4 63l-.6.6c-.7-.6-1-1.4-1.1-2.3.7.4 1.3.9 1.7 1.7z" fill="#717374"/><path d="M63.6 93.3c1.4.2 1.9 1.1 1.7 2.4-1.2-.1-1.8-.9-2.4-1.7-.1-.6.1-.9.7-.7z" fill="#525253"/><path d="M63.6 93.3l-.7.7c-.8-.4-1.4-1-1.7-1.9.9.2 1.8.5 2.4 1.2z" fill="#636465"/><path class="dst8" d="M89.9 71.7c3.1.5 5.7 2.2 8.2 4.1 5.9 7.2 6.2 15.5 1 21.6-2.4 2.8-5.4 4.6-9.1 5.3-.2.2-.5.3-.7.3-1.5-.2-3-.2-4.5 0-.3-.1-.5-.2-.7-.3-3.2-.4-5.7-2.2-8.1-4-6.2-8-6.2-16.6.1-22.8 2.3-2.2 5-3.6 8.1-4.3.2-.2.5-.3.7-.3 1.5.1 3 .1 4.4 0 .1.1.3.2.6.4z"/><path d="M89.7 103.2c-1.9 1.1-3.8 1.1-5.6 0 1.9-.8 3.8-.8 5.6 0z" fill="#c2c4c6"/><path d="M89.7 103.2h-5.6c-.1-.2-.1-.3-.2-.5.2-.1.5-.1.7-.2 1.5-.3 3-.3 4.5 0 .2.1.5.1.7.2 0 .2 0 .4-.1.5z" fill="#7a7c7d"/><path d="M84.6 71.9c-.2-.1-.5-.1-.7-.2v-.4c1.9-.7 3.9-.7 5.8 0v.4c-.2.1-.5.1-.7.2-1.3.2-2.8.2-4.4 0z" fill="#939495"/><path d="M89.8 71.3H84c1.9-1.1 3.9-1.1 5.8 0z" fill="#daddde"/><path d="M87.5 82.1c1.1.1 2.2.3 2.9 1.3.3.6.2 1.2-.2 1.6-2.1 2.2-3.6 5.1-6.8 6-3.1-3.4-2.1-7.1 2.3-8.9.6-.4 1.2-.4 1.8 0z" fill="#ced1d2"/><path d="M83.4 91c2.3-2.5 4.7-5.1 7-7.6 2.9 3.4 2.3 6.6-1.7 8.8-.1 0-.3 0-.4.1-.9.2-1.8.2-2.7 0-.1 0-.3-.1-.4-.1-.7-.2-1.4-.5-1.8-1.2z" fill="#babcbf"/><path d="M87.5 82.1h-1.8c-.1-1.8 1.3-1.1 1.9-.9 1.1.2-.1.6-.1.9zm-2.9-10.2c1.5-.3 3-.3 4.5 0-1.4.7-2.9.7-4.5 0z" fill="#333334"/><path d="M89.2 102.6h-4.5c1.5-.8 3-.8 4.5 0z" fill="#343435"/><path d="M88.6 92.6c-1.1 1-2.3 1-3.4 0 1.1-.6 2.3-.6 3.4 0z" fill="#353536"/><path d="M88.6 92.6h-3.4v-.7c1.1-.1 2.3-.1 3.4 0v.7z" fill="#7d7e7f"/><path d="M88.6 92c-1.1.3-2.3.3-3.4 0 1.1-.6 2.3-.6 3.4 0z" fill="#c2c4c7"/></svg><svg version="1.1" id="por-4" x="175" y="175" xml:space="preserve" width="175" height="175" xmlns="http://www.w3.org/2000/svg"><style>.est0{fill:#d2f0fa}.est7{fill:#ecf8fc}.est11{fill:#00c5ec}.est14{fill:#d8f1f9}</style><path class="est0" d="M93.3 175.6H81c-.9-.6-2-.2-3-.3-8.9-.2-17.2-2.6-25.3-6.2-10-4.4-19-10.3-26.7-17.9-9-8.9-15.7-19.2-20.3-31-3-7.6-5-15.3-4.9-23.5v-2.8c-.2-1.7.3-3.5-.3-5.2v-.6c.5-1.8.5-3.5 0-5.3v-4.1c.7-8.7 2.6-17 6.2-25 12.5-28 33.7-45.5 63.7-52.1 3-.7 6.1-.9 9.3-.8h16.7c12.8.1 24.4 4.3 35.3 10.5 19.4 11 32.5 27.3 40 48.1 2.3 6.2 3.6 12.7 3.6 19.3.1 1.3-.3 2.7.3 4v10.5c-.5 1.2-.5 2.3 0 3.5v1.2c-.7 7.9-2.4 15.7-5.5 23.1-8 19.6-21.3 34.7-39.9 44.7-10.2 5.5-21 9.6-32.9 9.5-1.3.2-2.7-.2-4 .4z"/><path d="M79.3 1.2c-9.6.9-18.8 3.5-27.6 7.4C36.8 15.3 25 25.7 15.7 39 10 47.2 6.1 56.4 3.5 66.1 2.4 70.3 2.3 74.7.6 78.7v-76C.6.9 1 .5 2.8.5c25.5.1 51 0 76.6 0 .2.1.3.3.2.4-.1.2-.2.3-.3.3zM175 78.7c-.8-8.5-3-16.8-6.3-24.6-4.4-10.5-10.6-19.9-18.6-27.8-11.3-11.1-24.6-19-40.2-22.8-4.3-1.1-8.6-2.2-13.1-2.4-.2-.1-.3-.2-.2-.4.1-.1.1-.2.2-.2h76.6c1.8 0 2.2.4 2.2 2.2-.1 25.3 0 50.7 0 76-.2.3-.4.3-.6 0zM1.2 96.8c.5 8.7 2.9 17 6.2 25 4.4 10.8 10.8 20.4 19.1 28.5 11.8 11.4 25.6 19.3 41.7 23 3.3.8 6.6 1.3 10 1.7.2.1.3.3.2.4-.1.1-.1.2-.2.2H2.8c-1.8 0-2.2-.4-2.2-2.2.1-25.5 0-51 0-76.6.2-.3.4-.3.6 0zM97.4 175c8.7-.5 16.9-3.1 24.9-6.4 11.1-4.6 20.8-11.2 29-19.9 12.4-13.1 20.2-28.7 23.2-46.6.2-1.4.2-2.9 1.1-4.1v75.4c0 1.8-.4 2.2-2.2 2.2-25.3-.1-50.7 0-76 0-.2-.1-.3-.3-.2-.4l.2-.2z" fill="#fefefe"/><path d="M93.3 1.2H82.8c-.2-.1-.3-.3-.2-.4.1-.1.1-.2.2-.2h10.5c.2.1.3.3.2.4 0 .1-.1.2-.2.2z" fill="#ddf4fa"/><path d="M.6 82.8c.9 1.8.9 3.5 0 5.3v-5.3z" fill="#daf3fa"/><path d="M.6 88.7c1.1 1.6.3 3.5.6 5.3-.2.3-.4.3-.6 0v-5.3z" fill="#dbf3fa"/><path d="M175 78.7h.6v4.1c-1.1-1.2-.4-2.7-.6-4.1z" fill="#e7f7fc"/><path d="M97.4 175v.6h-4.1c1.3-1.1 2.8-.4 4.1-.6z" fill="#e3f6fb"/><path class="est7" d="M82.8.6v.6h-3.5V.6h3.5z"/><path d="M93.3 1.2V.6h3.5v.6h-3.5z" fill="#eef9fd"/><path d="M175.6 96.8c-.9-1.2-.9-2.3 0-3.5v3.5z" fill="#e3f5fb"/><path d="M.6 93.9h.6v2.9H.6v-2.9z" fill="#edf8fc"/><path class="est7" d="M78.2 175.6v-.6c1 .1 2.1-.4 2.9.6h-2.9z"/><path class="est11" d="M61.2 129c-9.1-1.1-16.2-8.9-16.3-18-.1-15.7-.1-31.5 0-47.2 0-9.2 6.3-16.6 15.5-18.4.4-.1.7-.3 1.1-.4.5-.6 1-.4 1.6-.2H111c.5-.2 1.1-.4 1.6.2 6.7 1.4 11.9 4.8 14.9 11.2.9 1.9 1.6 4 1.6 6.1v29.3c-1.5.2-2.2-1-3.1-1.8l-12.3-12.3c-.9-.9-1.7-1.8-2.9-2.4-2.2-1.7-3.5-4.2-5.6-6.1-3.6-3.4-7.7-5.8-12.7-6.8-1.4-.3-2.6-.7-3.6-1.8-1.1-1.2-2.4-1.4-3.5-.1-1 1.2-2.4 1.5-3.8 1.9-10.2 2.6-16.6 8.9-19.3 18.9-.3 1-.3 2.3-1.1 3-2.5 2.3-1.9 4.3 0 6.5.4.5.6 1.2.8 1.9 1.1 4.7 3.4 8.8 6.6 12.5 2.1 2.1 4.4 4 6.5 6.2 4.1 5 9.1 9.2 13.5 14 .9.9 2.3 1.6 1.8 3.3-.2.2-.5.4-.8.5-7.5.4-15 .1-22.6.2-1.4 0-2.9-.1-4.3.2-.5.1-1-.1-1.5-.4z"/><path d="M90.5 127.7c-5.1-5-10.2-10-15.3-15.1-.3-.3-.4-.8-.6-1.3.5-1.6 1.7-1 2.6-.7 3 1.1 6.4 1 8.8 3.6.6.7 1.5.6 2.1 0 1.8-2 4.5-2.3 6.8-3 8.8-2.8 14.1-8.9 16.6-17.6.5-1.9 1.1-3.7 2.4-5.2.9-1 .8-1.9-.2-3.2-2.2-3-3.3-6.6-3-10.5 1.4-.2 2.1.9 2.9 1.7 5.2 5.1 10.3 10.2 15.5 15.2 0 6.5.1 13 .1 19.4 0 8.3-7.6 16.9-16.3 17.9-.3.2-.6.2-.9.2-.5-.1-.9-.3-1.4-.5-5.4-.3-10.8 0-16.3-.1-1.5.1-2.8.3-3.8-.8z" fill="#1d67ae"/><path d="M112 130.1c-.8.8-1.8.6-2.7.6H64c-.9 0-2 .3-2.7-.6 1.4-1 2.9-.9 4.5-.9h42.7c1.2.1 2.5-.2 3.5.9z" fill="#cfeffa"/><ellipse class="est14" cx="44" cy="87.2" rx=".2" ry="33.3"/><path d="M91.6 130.1H61.3c-.4-.3-.2-.5.1-.6.5-.3 1.1-.4 1.7-.4 9.4-.1 18.7-.4 28.1.1.3.2.4.5.4.9z" fill="#def3fa"/><path d="M91.6 129.6c-10.1 0-20.2-.1-30.2-.1-.1-.2-.1-.3-.2-.5.4-.1.9-.1 1.3-.2 9.2-.4 18.4-.1 27.7-.2.4-.1.7 0 1.1.1.1.1.3.2.4.4-.1.1-.1.3-.1.5z" fill="#5edbf2"/><path class="est14" d="M129.5 92.2V63.7h.6v28.5c-.2.2-.4.3-.6 0z"/><path d="M91.6 130.1v-.7c.4-.2-.1-.1.2-.2 6.9-.9 13.8-1.2 20.7.2.6.8-.2.5-.5.6-6.8.1-13.6.1-20.4.1z" fill="#dbf8fc"/><path d="M112.5 129.4c-7 0-14 0-20.9-.1 0-.1 0-.2.1-.4l.4-.4c6.6-.4 13.3-.6 19.9.2.2.1.5.1.7.2-.1.2-.2.4-.2.5z" fill="#7fadd4"/><path d="M129.5 92.2h.6v18.6h-.6V92.2z" fill="#d7f4fc"/><path d="M63 44.8c-.5.1-1 .1-1.6.2-.2-.1-.4-.1-.5-.2-.4-.3 0-.4.2-.5.7 0 1.4 0 1.9.5zm49.4.2c-.5-.1-1-.1-1.6-.2.5-.6 1.2-.5 1.9-.5.3 0 .6.1.2.5-.1.1-.3.1-.5.2z" fill="#ddf2fa"/><path d="M68.3 105.6c-3.7-3.4-5.8-7.7-6.9-12.5-.4-1.6-.9-2.8-2.2-3.9-1.6-1.4-1.6-3.3.3-4.3 1.2-.6 1.4-1.5 1.6-2.5 2.6-11.7 9.8-18.8 21.5-21.1 1-.2 1.5-.6 2-1.4 1.3-2.1 3.3-2.3 4.5-.3.8 1.3 1.8 1.5 3 1.7 5.2 1.2 9.9 3.3 13.4 7.4-.4 2.3-2.3 3-4.1 3.9-.3 0-.6 0-.9-.1-3.6-2.5-7.1-5.2-11.8-5.2h-4c-12.2.7-24.4 16.5-14.3 31.1.7 1 1.5 2 1.6 3.4-.4 2.1-1.3 3.7-3.7 3.8z" fill="#e1f5fb"/><path class="est0" d="M101.5 72.2c1.4-1.1 2.7-2.3 4.1-3.4 2 1.7 3.5 3.8 5 5.9.7 2.9 2.1 5.6 2.4 8.6.1 1 .9 1.1 1.5 1.6 1.6 1.4 1.6 3.4-.2 4.5-1.2.7-1.3 1.5-1.5 2.5-2.7 11.8-10 18.9-21.9 21.2-1.1.2-1.2 1-1.7 1.7-1.1 1.5-3 2-3.9.4-1.3-2.2-3.1-2.4-5.1-2.6-1.9-.2-3.4-2.3-5.6-1.2-2.3-1.7-4.4-3.7-6.3-5.8 1.4-1 2.7-2.2 3.5-3.7.3-.1.6-.1.9 0 1.1.4 2 1.2 2.9 1.9 7.9 5.3 18.7 4.3 25.5-2.4 6.6-6.5 7.7-16.9 2.8-24.9-.8-1.4-2.2-2.5-2.4-4.3z"/><path d="M91.1 128.9H62.4c.9-.8 2-.5 3.1-.5 8.3 0 16.7 0 25-.1.5-.1.7.1.6.6z" fill="#00c1eb"/><path d="M91.1 128.9l-.6-.6c0-.2-.1-.4-.1-.5h17.9c1 0 2.1-.3 3 .6-4.6.6-9.2.1-13.8.3-2 .1-4-.2-6 .2v.2c0-.1-.2-.2-.4-.2z" fill="#216ab0"/><path d="M91.6 128.8c1.8-1 3.8-.4 5.6-.5 4.7-.1 9.4 0 14.1 0 .2.1.3.3.5.4-6.6.1-13.4.1-20.2.1z" fill="#005ca8"/><path class="est11" d="M101.5 72.2c5.8 5 8 13.9 5.3 21.6-2.9 8.1-8.7 13-17.2 14.1-6.6.9-12.5-.9-17.2-5.8-.4-1.2.4-1.8 1.1-2.5 1.8-1.8 3.4-3.6 5.3-5.4.4-.2.8-.2 1.3-.1 1 .4 1.7 1.1 2.1 2.1.2.6.1 1.1.1 1.7-.1 1.2-.5 2.7 1.1 3.2s2-1.1 2.5-2.2c.3-.7.6-1.4 1.2-1.9.6-.4 1.3-.5 1.9-.6 6.8-1.8 9.6-8.3 6.2-14.4-.4-.8-1-1.4-.9-2.4 1.7-3 4.3-5.1 6.8-7.3 0 0 .2 0 .4-.1z"/><path d="M100.9 72.3c-1.4 3.1-4.1 4.8-6.4 7-.2.2-.5.3-.8.2-1.4-.5-1.7-1.6-1.7-2.9 0-.6.1-1.1.1-1.7 0-1-.3-1.7-1.3-2-1-.3-1.7.2-2.2 1-.5.8-.8 1.7-1.5 2.4-1.7 1.3-3.6 1.9-5.8 1.7-1.1-.2-2.3-1.3-3.4-.1-1.2 1.3-.1 2.7.1 4-.9 3.8-1.2 7.5.9 11 .2.4.2.9-.2 1.4-.5 2.4-2.7 3.3-4 5-.8 1-1.6 1.8-2.4 2.8-.2-.1-.3-.2-.5-.2-5.6-6.8-7.9-14.4-4.2-22.7 3.2-7.2 8.7-11.9 16.9-12.7 1.5.4 3.1.4 4.6 0 4.9.3 8.8 2.2 11.8 5.8z" fill="#39d8f2"/><path d="M89.2 66.5c-1.5.9-3.1.9-4.6 0 1.5-.2 3.1-.2 4.6 0z" fill="#17d6f1"/><path d="M94 79.3h.5c.2 1.6 1.7 2.5 2.2 4 2.4 7.1-2.1 13.7-9.7 14.2-1.2-2.1.1-3.8.9-5.5 3.4-1.9 4-4.8 2.6-8.3 0-.3 0-.6.1-.8.9-1.5 1.9-2.7 3.4-3.6z" fill="#74d9f2"/><path d="M81.1 77.6c2.1-.1 4-.7 5.8-1.7 1.1 2.5 0 4.6-1.1 6.6-3.3 2.4-3.7 3.4-2.6 7.2.2.6.2 1.1.1 1.7-.8 1.4-1.7 2.7-3.4 3.1-.4-.1-.8-.1-1.1-.2-2.6-4-3.2-8.1-1.3-12.6 1.6-1 3.4-1.9 3.6-4.1z" fill="#a7e6f6"/><path d="M88.6 92.1c-.5 1.8-1.1 3.6-1.6 5.4-.3 1-.5 2-.9 3-.6 1.3-1.5 2.3-3.1 1.9-1.6-.4-2.2-1.5-2-3 .1-1 .4-2.1.6-3.1-1-1.8.2-3 1.1-4.3.7-.7.4-1.6.3-2.4-.2-1.6.3-2.8 1.9-3.3 1.2-.3 2.3.2 3.4.4.5.1.9.4 1.2.8.9 1.8.2 3.2-.9 4.6z" fill="#fdfefe"/><path d="M82.9 92.2c-.4 1.4-.8 2.7-1.2 4.1-.6-.6-1.2-1.1-1.7-1.7.7-1.2 1.7-2.2 2.9-2.9.2.1.3.2.2.3l-.2.2z" fill="#78dbf3"/><path d="M88.1 87.4c-1-.2-1.9-.4-2.9-.6-2.3-1.5-1.2-3.1 0-4.6.8-2.1 1.4-4.2 1.7-6.4.1-.3.3-.5.4-.8.5-1.9 1-3.9 3.7-3.2 2.8.7 1.9 2.8 1.7 4.6-.2 2.2.1 4.6-1.7 6.4-.1.2-.1.3-.1.5-.1.4-.1.8-.3 1.1-.8 1.1-1.8 2-2.5 3z" fill="#fd9388"/><path d="M81.1 77.6c1 3.3.4 4-3.6 4.2-1.6-1.4-1.6-3.1-.2-4.5 1.2-1.2 2.6-1.4 3.8.3z" fill="#f6fcfd"/><path d="M91 82.9c.6-2.1 1.1-4.3 1.7-6.4-.1 1.2.3 2.2 1.3 2.8-.3 1.7-1.8 2.6-3 3.6z" fill="#a3e1f1"/><path d="M90.4 84c.2-.2.3-.4.5-.6 2.3 4.2 1.6 6.8-2.3 8.7.2-1.4.4-2.9.7-4.3-.5-1.6.5-2.6 1.1-3.8z" fill="#d0eef8"/><path d="M85.3 82.3c.3 1.5-1.5 3.1 0 4.6-2.7.9-1.1 3.8-2.4 5.3 0-.2-.1-.4-.1-.5.1-.8-.2-1.5-.6-2.2-1.4-3.2-.2-5.9 3.1-7.2z" fill="#e1f4fa"/><path d="M90.4 84c-.1 1.3-.4 2.6-1.1 3.7l-1.2-.3c-.7-2.1 1.4-2.4 2.3-3.4z" fill="#fe6854"/></svg><svg version="1.1" id="por-5" x="350" xml:space="preserve" width="175" height="175" xmlns="http://www.w3.org/2000/svg"><style>.fst0{fill:#e2f1dc}.fst7{fill:#f3f9f0}</style><path class="fst0" d="M93.3 175.6H81c-.9-.6-2-.2-3-.3-15.6-.5-29.3-6.7-41.7-15.5-18-12.9-29.3-30.4-34.5-52-.9-3.7-1-7.5-1.1-11.3V85.4c-.1-1.6.3-3.3-.3-4.9v-1.8C1 70 3 61.6 6.5 53.7c12.7-27.8 33.8-45.3 63.6-52 3.1-.7 6.3-.9 9.5-.8h16.7c12.8.1 24.4 4.3 35.4 10.5 19.4 11 32.5 27.4 40 48.3 2.2 6.2 3.5 12.5 3.5 19.1.1 1.2-.3 2.4.3 3.5V94c-.6 1.3-.2 2.7-.3 4 0 8.6-2.4 16.7-5.7 24.5-4.2 10.1-10 19.1-17.6 26.9-11 11.4-24.2 19.4-39.5 23.8-5 1.4-10 2.3-15.2 2.2-1.2 0-2.6-.4-3.9.2z"/><path d="M79.3 1.2C67 2.5 55.5 6.1 44.7 12.2 33 18.8 23.5 27.8 15.9 38.7 10.1 47 6.1 56.3 3.5 66.1 2.4 70.3 2.3 74.7.6 78.7v-76C.6.9 1 .5 2.8.5c25.5.1 51 0 76.6 0 .2.1.3.3.2.4-.1.2-.2.3-.3.3zM175 78.7c-.8-8.6-3-16.9-6.4-24.9-4.4-10.4-10.6-19.7-18.5-27.5-11.3-11.1-24.6-19-40.2-22.8-4.3-1.1-8.6-2.2-13.1-2.4-.2-.1-.3-.2-.2-.4.1-.1.1-.2.2-.2h76.6c1.8 0 2.2.4 2.2 2.2-.1 25.3 0 50.7 0 76-.2.3-.4.3-.6 0zM1.1 96.8c.5 8.6 2.8 16.8 6.1 24.7 4.4 10.9 10.8 20.6 19.2 28.8 11.8 11.4 25.6 19.3 41.7 23 3.3.8 6.6 1.3 10 1.7.2.1.3.3.2.4-.1.1-.1.2-.2.2H2.7c-1.8 0-2.2-.4-2.2-2.2.1-25.5 0-51 0-76.6.3-.3.5-.3.6 0zM97.4 175c8.6-.5 16.7-3 24.6-6.3 11-4.5 20.7-11.1 28.9-19.7 12.6-13.2 20.6-28.9 23.5-47.1.2-1.3.4-2.7.6-4 .2-.3.4-.3.6 0v75.4c0 1.8-.4 2.2-2.2 2.2-25.3-.1-50.7 0-76 0-.2-.1-.3-.3-.2-.4.1 0 .2-.1.2-.1z" fill="#fefefe"/><path d="M93.3 1.2H82.8c-.2-.1-.3-.3-.2-.4.1-.1.1-.2.2-.2h10.5c.2.1.3.3.2.4 0 .1-.1.2-.2.2z" fill="#e9f4e5"/><path d="M1.2 85.2v8.2c-.2.3-.4.3-.6 0v-8.2c.2-.3.4-.3.6 0z" fill="#e7f3e1"/><path d="M1.2 85.2H.6v-4.7c1.1 1.4.3 3.1.6 4.7z" fill="#ecf5e8"/><path d="M175.6 98h-.6c.2-1.4-.5-2.8.6-4.1V98z" fill="#f4f9f1"/><path d="M97.4 175v.6h-4.1c1.3-1.1 2.8-.4 4.1-.6z" fill="#edf6e9"/><path class="fst7" d="M82.8.6v.6h-3.5V.6h3.5z"/><path d="M93.3 1.2V.6h3.5v.6h-3.5z" fill="#f4faf1"/><path class="fst7" d="M.6 93.3h.6v3.5H.6v-3.5z"/><path d="M175 78.7h.6v3.5c-1-1-.5-2.3-.6-3.5z" fill="#f1f8ee"/><path d="M78.2 175.6v-.6c1 .1 2.1-.3 2.9.6h-2.9z" fill="#f2f9f0"/><path d="M61.8 129c-10.4-2.1-16.3-9.2-16.3-19.9V64c0-9.6 6.8-17.2 16.3-18.6.2 0 .4-.1.5-.1 16.8-.1 33.5-.1 50.3 0 .2 0 .4.1.5.1 9.5 1.4 16.2 9 16.3 18.6 0 6.7-.1 13.4-.1 20.1-.3.1-.5.1-.8 0-3.7-2.7-6.5-6.3-9.8-9.4-2.6-2.4-4.8-5.3-7.8-7.3-3.7-4.1-8.2-4.7-13.3-3.2-4.9 1.4-9 4-12.9 7.1-7.6 6.1-14.4 13-18.7 21.9-.7 1.4-1.2 2.8-1.6 4.4-1.2 4.9-.9 9.5 3.3 13 .2.2.4.4.5.6.3.5.8.8 1.2 1.1 4.7 4.1 8.4 9.2 12.9 13.5.8.7 2 1.6.7 2.9-2.4.9-4.9.3-7.4.4-4.1.2-8.2-.2-12.4.2-.5.1-.9 0-1.4-.3z" fill="#7ccb69"/><path d="M83.4 127.8c-4.9-5.1-9.8-10.1-14.7-15.2.4-1.1 1.7-.4 2.3-1.1.1-.2.2-.5.3-.7 2.7-2.6 5.3-5.3 7.9-8 2.6-2.6 2.7-4 1-7.2-.4-.8-.9-1.5-.8-2.4.3-1.2.3-2.4 0-3.7 0-.7.2-1.4.6-1.9 2.6-2.9 5.3-5.8 8.4-8.3.7-.6 1.7-.9 2.6-1 .7-.1 1.5-.1 2.2 0 1.8.2 2.9 1.5 4.4 2.3 1.2.7 2.4.8 3.6 0 3.3-2.6 5.9-5.9 8.9-8.8 1.4-1.4.5-3.4 1.4-4.9.4.1.8.1 1.1.3 5.5 5.5 10.9 11 16.3 16.5 0 .2 0 .4.1.5.5 9 .2 18.1.1 27.1.1.5.2 1-.1 1.5-.2 6.3-5.7 12.9-12.6 15.1-1 .3-2.1.5-3.1.7-.5.3-.9.5-1.5.5-8.6-.5-17.3-.1-26-.2-.2 0-.3 0-.5.1-.3.1-.6.1-.9 0-.8.1-.8-.6-1-1.2z" fill="#006b2f"/><path d="M61.9 44.9c-.1 0-.2 0-.3-.1-.1-.1-.1-.3-.2-.4.3 0 .5-.1.8-.1h50.6c.3 0 .7 0 .8.1.2.4-.2.4-.5.5-.9.7-2 .5-3.1.5H64.9c-1 .1-2.1.3-3-.5z" fill="#e6f3e0"/><path d="M61.9 44.9h51.2c0 .1.1.3.1.4l-.1.2c-4.7.4-9.5.2-14.3.1-12.3 0-24.7.2-37-.1l-.1-.2c.1-.1.2-.2.2-.4z" fill="#a5da97"/><path d="M128.9 113.2V112c-.6-4.3-.2-8.7-.2-13 0-4.9-.3-9.9.2-14.8l.1-.1c.2 0 .3.1.5.1 0 .2.1.3.2.5.5.7.5 1.5.5 2.2v22.4c0 .8 0 1.6-.5 2.2-.4.5.1 1.4-.8 1.7z" fill="#007339"/><path d="M113.1 129.4c-.2.2-.4.5-.5.7-4.9.7-9.8.2-14.7.2-4.4 0-8.9.4-13.3-.2 0-.2-.1-.4-.1-.5.3-.2.6-.4 1-.5 8.3-.2 16.6 0 24.9-.1.9-.1 1.8.2 2.7.4z" fill="#eff9e6"/><path d="M113.1 129.4H84.6c-.1-.1-.2-.2-.1-.3.1-.1.1-.1.2-.1v-.2c9.1-.1 18.2-.3 27.4.1.4.1.8.1 1.2.2-.1 0-.2.1-.2.3z" fill="#8abe9c"/><path d="M84.6 130.1h28c-.6.7-1.4.6-2.1.6H86.8c-.8 0-1.6 0-2.2-.6z" fill="#dfefda"/><path d="M130.1 84.6c.7.6.6 1.4.6 2.1v23.4c0 .4.5 1.2-.6 1.3-.6-5.3-.2-10.6-.3-15.9 0-3.6-.4-7.3.3-10.9z" fill="#e6f3df"/><path d="M130.1 84.6v26.8h-.5V84.6h.5z" fill="#d6ebd3"/><path d="M84.6 129v.6c-7.6.2-15.2.5-22.8-.1v-.5c.4 0 .8-.1 1.3-.1 7-.3 14.1-.3 21.1 0 .1-.1.3 0 .4.1z" fill="#bce3b0"/><path d="M61.8 129.4c7.6 0 15.2.1 22.8.1v.5H64.8c-1 .1-2.1.4-3-.6z" fill="#e7f4e2"/><path class="fst0" d="M111.5 67.1c1.1 2.5.7 4.5-1.5 6.4-3 2.5-5.3 5.8-8.5 8-1.3.1-2.7.1-4 0-1.6-.3-2.4-2.1-4.1-2.3-.8-.6-1.5-.7-2.3 0-2.2.4-3.4 2.1-4.8 3.6-2.2 2.3-4.9 4.1-6.4 7 .1 1.2.2 2.4 0 3.6.8 2.1 3.1 3.5 2.5 6.2-.2.8-.2 1.8-.8 2.4-3 3-6 6-9 8.9-.3.3-.9.4-1.3.5h-.4c-.8.1-1.7.1-2.5.2-.2 0-.5-.1-.7-.3-4.7-3.2-5.3-7.8-4.4-12.9.7-3.6 2.3-6.8 4.2-9.8 5.9-9 13.5-16.6 22.9-22.2 4.8-2.8 9.9-5 15.8-3.4 2.3.7 4.2 1.9 5.3 4.1z"/><path d="M61.9 45.6h51.2c-.7.6-1.7.5-2.5.5H64.4c-.9 0-1.8.2-2.5-.5z" fill="#74c861"/><path d="M84.1 128.8H63c1.8-1 3.8-.3 5.7-.5 4.9-.3 9.8.6 14.6-.5.3.4.6.7.8 1z" fill="#75c962"/><path d="M71.1 112c-.5 1.3-1.7.2-2.4.7-.4-.1-.8-.1-1-.6 1.1-.8 2.3-.9 3.4-.1z" fill="#006222"/><path d="M62.2 103.1c-.5-.7-.5-1.4-.1-2.1.6.6.2 1.4.1 2.1z" fill="#76c963"/><path d="M71.1 112h-3.4v-.6c.2-.1.4-.1.7-.2.9-.2 1.9-.2 2.8 0 .1.1.1.2 0 .3 0 .2-.1.3-.1.5z" fill="#77b48f"/><path d="M128.8 84.1c0 9.3 0 18.6.1 27.8-.6-.5-.6-1.2-.6-1.9V85.6c0-.4 0-1 .5-1.5z" fill="#00682b"/><path d="M112 128.8c-9.1.1-18.2.3-27.4-.1 2-.8 4-.3 6-.4 6.1-.1 12.2 0 18.3 0 1 .1 2.1-.2 3.1.5z" fill="#006525"/><path d="M79.8 93.4c-.7-1.2-.7-2.4 0-3.6 1 1.2 1 2.4 0 3.6z" fill="#006425"/><path d="M97.4 81.6c1.3-.7 2.7-.7 4 0-1.3.7-2.6.7-4 0z" fill="#edf8e5"/><path d="M91 79.2c-.2-.5-.3-.9.4-1 .8-.1 1.7-.2 1.9 1H91zm-19.8 32.1c-.9.3-1.9.2-2.8 0 .9-.7 1.8-.6 2.8 0z" fill="#f1fae7"/></svg><svg version="1.1" id="por-6" x="350" y="175" xml:space="preserve" width="174" height="175" xmlns="http://www.w3.org/2000/svg"><path d="M-1.1 79.3v2.3c.5 1.2.5 2.3 0 3.5v12.8c.7 6.3 1.4 12.7 3.5 18.7 7.1 19.8 19.3 35.5 37.2 46.7 8.2 5.1 16.9 8.7 26.2 10.9 3.7.9 7.5.5 11.2 1.3h19.3c3.8-.9 7.7-.5 11.5-1.5 14.4-3.7 27.1-10.4 38.1-20.4 13.3-12 21.9-26.8 26.4-44 1.1-4 .7-8.3 1.6-12.3v-5.8c-.6-2-.1-4.1-.3-6.2.1-1.2-.3-2.5.3-3.7v-2.9c-.7-6.9-1.6-13.8-4.1-20.4-11.4-29.8-32.5-48.7-63.4-56.4-3.8-1-7.9-.6-11.8-1.3h-2.3c-3.9.5-7.8.5-11.7 0h-2.3c-4.8.9-9.8.6-14.6 1.9C49.6 6.3 37.2 13 26.5 22.9c-13 12-21.7 26.5-26 43.6-1.1 4.2-.8 8.6-1.6 12.8z" fill="#feaeaa"/><path d="M94.6.6c4.2.9 8.5 1.7 12.7 2.7 20.9 5 37.5 16.5 50.1 33.7 8.3 11.4 13.4 24.2 15.5 38.2.2 1.2.1 2.5 1.1 3.5v-76c0-1.8-.4-2.2-2.2-2.2-25.8.1-51.5.1-77.2.1zM-1.1 79.3C0 74.3 1 69.1 2.4 64.1c3.6-12.9 10-24.3 18.9-34.3C33.9 15.8 49.5 7 67.8 2.7c3.5-.8 7.1-.8 10.5-2.1H1.2C-.6.6-1 1-1 2.8c-.1 25.5-.1 51-.1 76.5zm175 18.1c-1.6 4.2-1.7 8.7-2.9 13-3.8 13.6-10.1 25.8-19.7 36.3-13.2 14.6-29.5 23.5-48.6 27.5-2.1.4-4.5.1-6.4 1.5h75.4c1.8 0 2.2-.4 2.2-2.2V97.4zm-96.8 78.2c-4.3-1-8.7-1.7-12.9-2.9-32.4-9.3-53.1-30.2-62.4-62.6C.7 106.1.5 101.9-1 98v75.4c0 1.8.4 2.2 2.2 2.2h75.9z" fill="#fefefe"/><path d="M80.6.6c3.9 1 7.8 1 11.7 0H80.6z" fill="#fec3c0"/><path d="M173.3 85.2c.2 2.1-.6 4.4.6 6.4v-6.4c-.2-.4-.4-.4-.6 0z" fill="#feb8b5"/><path d="M173.3 85.2h.6v-3.5c-.9 1-.4 2.3-.6 3.5z" fill="#fec5c3"/><path d="M-1.1 85.2c.8-1.2.9-2.3 0-3.5v3.5z" fill="#febbb8"/><path d="M113.9 129c9.1-1.2 16.2-8.9 16.3-18.1.1-15.8.1-31.7 0-47.5-.1-9-6.9-16.6-15.7-17.9H62c-8.6 1.2-15.5 8.8-15.7 17.5-.2 8.2 0 16.4 0 24.7 1.8.8 2.7-.5 3.7-1.5 4.1-4.3 8.9-8 12.3-13 .2-.3.6-.4 1-.6 1.3-.7 2.1-2 3.1-3 4.1-4.3 9.6-4.7 15.3-1 1 .6 1.1 1.8 1.7 2.7.8 1.2 1.1 2.7 2.7 3.3 3.6-1.3 7.1-2.7 10.5-4.4.7-1 1.4-.7 2.1 0 .8 1.2 2.2 1.2 3.3 1.5 9.2 2.8 14.1 12.1 11 21.2-.7 2-1.8 3.7-3.2 5.1-1.6 1.7-3.2 3.4-4.5 5.3-6.7 7.4-13.7 14.4-21 21.1-1.2 1.1-2.8 2-2 4 1.1 1.2 2.5.8 3.8.8 8.8.1 17.6-.2 26.3.2.5 0 1-.1 1.5-.4z" fill="#f0f0f1"/><path d="M82.3 127.4c8.4-7.3 16.3-15.1 23.5-23.6-.2-1.4-1.4-1.5-2.2-1.2-3.8 1.1-7.7.7-11.5.7-2 1.2-2.4 4-4.6 5-1.1.7-2.1.8-3.2.1-1.7-.9-2.5-2.8-4.5-3.4-1.7-.1-3.1 1-4.8 1.2-4.5.5-8.3-.8-10.8-4.7-2.6-4-2-7.9.5-11.8.9-1.4 2.7-2.4 2.4-4.5-2.2-3.6-4.1-7.2-3.4-11.7.1-.7-.3-1.3-1.1-1.6-4.6 4.7-9.3 9.3-13.9 14-.7.7-1.3 1.7-2.5 1.8 0 7.9-.1 15.7 0 23.6.1 8.8 7.8 17 16.8 17.8.3.2.6.2 1 .3 5.3-.2 10.5 0 15.8-.1.3 0 .6-.1 1-.1.8-.3 1-1.2 1.5-1.8z" fill="#3e3e3f"/><path d="M61.9 45.5c.8.7 1.8.6 2.8.6h46.9c1 0 2 .2 2.8-.6-1.6-.5-3.2-.6-4.9-.6H66.8c-1.6.1-3.3.1-4.9.6z" fill="#eff2f3"/><path d="M81.2 128.4c-.1 0-.2 0-.4-.1-.3.2-.5.4-.4.8.1.1.2.3.3.4.3.1.7.1 1.1.1h29.3c.9 0 1.9.3 2.8-.3v-.5c-.4 0-.8-.1-1.2-.1-4.5-.5-9-.1-13.6-.2-6 0-12 .3-17.9-.1z" fill="#fdd0ce"/><path d="M113.8 129.5H80.5c-.1.1-.2.3-.1.4 0 .1.1.2.1.2h29.9c1.2 0 2.5.3 3.4-.6z" fill="#feaba5"/><path d="M45.1 89v21.4h.2V89.1s-.1-.1-.2-.1z" fill="#feb1ad"/><path d="M80.6 130.1v-.6h-.1c-3.7-1.1-7.4-.3-11.1-.5-2.1-.1-4.2-.5-6.2.5.4 1.2 1.5.6 2.2.6h15.2z" fill="#fbb4b0"/><path d="M63.2 129.5h17.3v-.5c-5.6-.5-11.2-.3-16.8-.1-.2.1-.5.2-.7.2 0 .1.1.2.2.4z" fill="#aa7877"/><path d="M91.7 103.9c4.1 1.1 8.1 1.2 12.1-.3.7-.3 1.4-.6 2 .3 3.3-3.5 7.1-6.7 8.5-11.6 3-10.4-3.7-20.8-14.4-22.4-.5-.1-.9-.3-1.4-.4-.7-.6-1.4-.6-2 0-3.9.6-7.6 1.9-10.7 4.5-1.1-.2-1.8.5-2.4 1.2-2.6 3.3-4.6 6.8-4 11.2 3.3 3.2 3.8 7.6 4.9 11.7.5.5 1.1.9 1.8.9 2.6.1 4 1.4 4.7 3.8.1.5.4.9.9 1.1z" fill="#00c4eb"/><path d="M79.9 86.3c.2-4.9 2.5-8.8 5.8-12.3-2.8-10-13.7-11.7-19.6-6-1.2 1.2-2.3 2.6-3.5 3.9.6.7.2 1.4.1 2.2-.8 4.5.4 8.4 4 11.4.6.9 1.5.9 2.3.6 3-1 5.8-.7 8.7.4.8.2 1.5.3 2.2-.2z" fill="#fee26d"/><path d="M81.2 128.4c.7.5 1.4.5 2.2.5 9.8 0 19.5 0 29.3-.1-1-.8-2.2-.5-3.4-.5H85.5c-1.1 0-2.4.5-3.1-.9-.5.3-.9.7-1.2 1z" fill="#ecf4f6"/><path d="M96.5 69.5h2c.3-.1.6-.1.8-.2.1 0 .1-.2.1-.4-1.3 0-2.7 0-4 .1-.2 0 .2.3.4.4.3 0 .5.1.7.1z" fill="#fdf3f2"/><path d="M79.9 86.3c-4.2-2.8-8.7-2.3-13.2-.9-.2.7-.8 1.1-1.3 1.5-4.7 4.4-5.5 10.7-2 15.7s10 6.3 15.7 3.2c.3-.1.5-.3.8-.4 1.2-2.7 2.6-5.3 4.6-7.4.7-4.8-.9-8.7-4.6-11.7z" fill="#fe867b"/><path d="M84.6 97.9c-3.7 1.3-4.6 2.7-4.6 7.4.9 1.7 2 3.3 4 3.9h.4c1 0 1.9-.2 2.9 0 .1 0 .2 0 .4.1 2.6-.8 3.9-2.7 4.1-5.3-.6-4.5-2.3-5.9-7.2-6.1z" fill="#00a99c"/><path d="M63.7 128.8c5.6 0 11.2.1 16.8.1.1-.2.2-.3.3-.5-5.7.1-11.4-.6-17.1.4z" fill="#2a3435"/><path d="M84 109.2c1.2 1.4 2.4.4 3.6 0l-.1-.2c-1.1-.3-2.3-.3-3.4 0l-.1.2z" fill="#008078"/><path d="M72.1 108.1c.7.4 1.3.7 2.1 0h-2.1z" fill="#323b3c"/><path d="M104.5 86.9c4.3-2.3 5.4-4.5 4.1-7.8-1-2.6-3.2-3-5.6-3.1-2.3-.1-3.8 1.1-4.8 3-1 1.8-1.1 3.5.5 5 .4.7 1 1.3 1.7 1.8.4.4.8.8 1.2 1.1 1-.4 1.9-.5 2.9 0z" fill="#09d7f1"/><path d="M104.5 86.9c-.9-.8-1.9-.8-2.9 0h2.9z" fill="#28d8f2"/><path d="M100.4 85.8c-.4-.8-1-1.4-1.7-1.8.1 1.1.6 1.7 1.7 1.8z" fill="#17d7f1"/><path d="M81.8 71.3c.2-1.9-.9-2.7-2.6-2.7-1.9 0-2.9 1-2.9 2.9 0 1.8 1.1 3 2.9 3 1.8-.1 2.7-1.2 2.6-3.2z" fill="#feec9d"/><path d="M75 90.9c.2 1.7 1.2 2.8 2.9 2.8 1.8.1 3.1-1 3-2.8 0-1.6-1-2.7-2.8-2.8-1.9-.1-2.7 1.2-3.1 2.8z" fill="#feaea5"/><path d="M87.1 101.1c0 .8.4 1.3 1.1 1.4.9.1 1.5-.4 1.5-1.3 0-.8-.5-1.3-1.3-1.3-.7 0-1.1.4-1.3 1.2z" fill="#00c4bb"/><path d="M84.1 109h3.4c-1.1-.7-2.2-.7-3.4 0z" fill="#00b0a2"/></svg></svg>